<?xml version="1.0" encoding="UTF-8" standalone="no"?>
<!-- Created with Inkscape (http://www.inkscape.org/) -->
<svg
   xmlns:dc="http://purl.org/dc/elements/1.1/"
   xmlns:cc="http://creativecommons.org/ns#"
   xmlns:rdf="http://www.w3.org/1999/02/22-rdf-syntax-ns#"
   xmlns:svg="http://www.w3.org/2000/svg"
   xmlns="http://www.w3.org/2000/svg"
   xmlns:sodipodi="http://sodipodi.sourceforge.net/DTD/sodipodi-0.dtd"
   xmlns:inkscape="http://www.inkscape.org/namespaces/inkscape"
   width="255.14186"
   height="34.640579"
   id="svg2"
   sodipodi:version="0.32"
   inkscape:version="0.46"
   version="1.0"
   sodipodi:docname="logo.svg"
   inkscape:output_extension="org.inkscape.output.svg.inkscape"
   inkscape:export-filename="/home/mvriel/Projects/Personal/phpCodeControl/web/images/logo.png"
   inkscape:export-xdpi="88.468643"
   inkscape:export-ydpi="88.468643">
  <defs
     id="defs4">
    <inkscape:perspective
       sodipodi:type="inkscape:persp3d"
       inkscape:vp_x="0 : 526.18109 : 1"
       inkscape:vp_y="0 : 1000 : 0"
       inkscape:vp_z="744.09448 : 526.18109 : 1"
       inkscape:persp3d-origin="372.04724 : 350.78739 : 1"
       id="perspective10" />
  </defs>
  <sodipodi:namedview
     id="base"
     pagecolor="#000000"
     bordercolor="#666666"
     borderopacity="1.0"
     gridtolerance="10000"
     guidetolerance="10"
     objecttolerance="10"
     inkscape:pageopacity="1"
     inkscape:pageshadow="2"
     inkscape:zoom="1"
     inkscape:cx="127.57093"
     inkscape:cy="17.32029"
     inkscape:document-units="px"
     inkscape:current-layer="layer1"
     showgrid="false"
     inkscape:window-width="1270"
     inkscape:window-height="777"
     inkscape:window-x="0"
     inkscape:window-y="0"
     borderlayer="false" />
  <metadata
     id="metadata7">
    <rdf:RDF>
      <cc:Work
         rdf:about="">
        <dc:format>image/svg+xml</dc:format>
        <dc:type
           rdf:resource="http://purl.org/dc/dcmitype/StillImage" />
      </cc:Work>
    </rdf:RDF>
  </metadata>
  <g
     inkscape:label="Layer 1"
     inkscape:groupmode="layer"
     id="layer1"
     transform="translate(-21.264393,-86.149238)">
    <g
       id="g2438" />
    <g
       id="g3039"
       transform="translate(-80,-34)">
      <path
         id="path2798"
         d="M 117.81029,133.79304 C 117.81027,132.98239 117.70361,132.31039 117.49029,131.77704 C 117.27694,131.24372 116.96761,130.82772 116.56229,130.52904 C 116.15694,130.20905 115.66628,129.98505 115.09029,129.85704 C 114.51428,129.72906 113.86361,129.66506 113.13829,129.66504 L 110.32229,129.66504 C 109.70362,129.66506 109.08495,129.66506 108.46629,129.66504 C 107.84762,129.64372 107.20762,129.60106 106.54629,129.53704 C 106.48229,129.53706 106.43962,129.57972 106.41829,129.66504 C 106.41829,129.72906 106.45029,129.77172 106.51429,129.79304 C 106.94095,129.89972 107.34629,130.10239 107.73029,130.40104 C 108.11428,130.67839 108.30628,131.04105 108.30629,131.48904 L 108.30629,144.60904 C 108.30628,144.97171 108.29562,145.29171 108.27429,145.56904 C 108.27428,145.82504 108.22095,146.03837 108.11429,146.20904 C 108.02895,146.37971 107.87962,146.51837 107.66629,146.62504 C 107.45295,146.7317 107.15429,146.81704 106.77029,146.88104 C 106.70629,146.90237 106.67429,146.9557 106.67429,147.04104 C 106.69562,147.10504 106.73829,147.13704 106.80229,147.13704 C 107.16495,147.15837 107.51695,147.16904 107.85829,147.16904 C 108.22095,147.16904 108.58362,147.16904 108.94629,147.16904 L 112.59429,147.16904 C 112.65828,147.16904 112.69028,147.12637 112.69029,147.04104 C 112.69028,146.9557 112.65828,146.91304 112.59429,146.91304 C 111.86895,146.87037 111.34628,146.6997 111.02629,146.40104 C 110.70628,146.10237 110.54628,145.60104 110.54629,144.89704 L 110.54629,130.78504 C 111.05828,130.52905 111.61295,130.40105 112.21029,130.40104 C 112.78628,130.40105 113.29828,130.53972 113.74629,130.81704 C 114.21561,131.07305 114.61028,131.41439 114.93029,131.84104 C 115.25028,132.26772 115.49561,132.74772 115.66629,133.28104 C 115.83694,133.79305 115.92228,134.31572 115.92229,134.84904 C 115.92228,136.04372 115.57028,137.02505 114.86629,137.79304 C 114.16228,138.53971 113.20228,138.91305 111.98629,138.91304 L 111.44229,138.91304 C 111.37828,138.91305 111.33561,138.95571 111.31429,139.04104 C 111.31428,139.10505 111.34628,139.14771 111.41029,139.16904 C 111.90095,139.27571 112.35961,139.32905 112.78629,139.32904 C 113.51161,139.32905 114.18361,139.16905 114.80229,138.84904 C 115.42094,138.52905 115.95428,138.11305 116.40229,137.60104 C 116.85028,137.06771 117.19161,136.47038 117.42629,135.80904 C 117.68227,135.14772 117.81027,134.47572 117.81029,133.79304 M 137.31079,146.94504 C 136.58544,146.81704 136.06277,146.57171 135.74279,146.20904 C 135.42277,145.84637 135.26277,145.30237 135.26279,144.57704 L 135.26279,131.45704 C 135.26277,130.92372 135.40144,130.58239 135.67879,130.43304 C 135.9561,130.26239 136.32944,130.13439 136.79879,130.04904 C 136.86277,130.02772 136.8841,129.98505 136.86279,129.92104 C 136.86277,129.83572 136.83077,129.79306 136.76679,129.79304 C 136.3401,129.81439 135.90277,129.83572 135.45479,129.85704 C 135.0281,129.85706 134.60144,129.85706 134.17479,129.85704 C 133.21477,129.85706 132.22277,129.82506 131.19879,129.76104 C 131.13477,129.76106 131.09211,129.80372 131.07079,129.88904 C 131.07077,129.95305 131.10277,129.99572 131.16679,130.01704 C 131.25211,130.03839 131.32677,130.05972 131.39079,130.08104 C 131.47611,130.10239 131.56144,130.12372 131.64679,130.14504 C 132.03077,130.25172 132.35077,130.37972 132.60679,130.52904 C 132.88411,130.65705 133.02277,130.97705 133.02279,131.48904 L 133.02279,136.92904 L 123.23079,136.92904 L 123.23079,131.36104 C 123.23078,130.93439 123.38012,130.60372 123.67879,130.36904 C 123.99878,130.13439 124.35078,130.01705 124.73479,130.01704 C 124.79878,130.01705 124.83078,129.97439 124.83079,129.88904 C 124.83078,129.80372 124.79878,129.76106 124.73479,129.76104 L 124.06279,129.76104 C 123.70011,129.76106 123.33745,129.77172 122.97479,129.79304 C 122.61212,129.79306 122.24945,129.79306 121.88679,129.79304 C 121.01212,129.79306 120.12679,129.76106 119.23079,129.69704 L 119.23079,129.95304 C 119.65745,129.97439 120.05212,130.10239 120.41479,130.33704 C 120.79878,130.57172 120.99078,130.92372 120.99079,131.39304 L 120.99079,145.02504 C 120.99078,145.36637 120.96945,145.64371 120.92679,145.85704 C 120.90545,146.07037 120.84145,146.25171 120.73479,146.40104 C 120.62812,146.52904 120.46812,146.6357 120.25479,146.72104 C 120.04145,146.78504 119.76412,146.84904 119.42279,146.91304 C 119.35879,146.93437 119.32679,146.9877 119.32679,147.07304 C 119.34812,147.13704 119.39079,147.16904 119.45479,147.16904 C 119.54012,147.16904 119.63612,147.1797 119.74279,147.20104 C 119.87079,147.20104 119.97745,147.20104 120.06279,147.20104 C 120.34012,147.22237 120.61745,147.23304 120.89479,147.23304 C 121.17212,147.23304 121.43878,147.23304 121.69479,147.23304 C 121.92945,147.23304 122.19612,147.23304 122.49479,147.23304 C 122.81478,147.2117 123.09212,147.20104 123.32679,147.20104 C 123.66811,147.1797 123.98811,147.16904 124.28679,147.16904 C 124.60678,147.16904 124.93745,147.16904 125.27879,147.16904 C 125.34278,147.16904 125.37478,147.12637 125.37479,147.04104 C 125.37478,146.9557 125.34278,146.91304 125.27879,146.91304 C 123.89211,146.78504 123.19878,146.04904 123.19879,144.70504 L 123.19879,137.98504 L 133.02279,137.98504 L 133.02279,144.64104 C 133.02277,145.32371 132.92677,145.82504 132.73479,146.14504 C 132.54277,146.46504 132.11611,146.72104 131.45479,146.91304 C 131.39077,146.93437 131.35877,146.9877 131.35879,147.07304 C 131.38011,147.13704 131.42277,147.16904 131.48679,147.16904 C 131.91344,147.1477 132.31877,147.13704 132.70279,147.13704 C 133.10811,147.1157 133.51344,147.10504 133.91879,147.10504 C 135.0281,147.10504 136.1481,147.13704 137.27879,147.20104 L 137.31079,146.94504 M 150.12279,133.79304 C 150.12277,132.98239 150.01611,132.31039 149.80279,131.77704 C 149.58944,131.24372 149.28011,130.82772 148.87479,130.52904 C 148.46944,130.20905 147.97878,129.98505 147.40279,129.85704 C 146.82678,129.72906 146.17611,129.66506 145.45079,129.66504 L 142.63479,129.66504 C 142.01612,129.66506 141.39745,129.66506 140.77879,129.66504 C 140.16012,129.64372 139.52012,129.60106 138.85879,129.53704 C 138.79479,129.53706 138.75212,129.57972 138.73079,129.66504 C 138.73079,129.72906 138.76279,129.77172 138.82679,129.79304 C 139.25345,129.89972 139.65879,130.10239 140.04279,130.40104 C 140.42678,130.67839 140.61878,131.04105 140.61879,131.48904 L 140.61879,144.60904 C 140.61878,144.97171 140.60812,145.29171 140.58679,145.56904 C 140.58678,145.82504 140.53345,146.03837 140.42679,146.20904 C 140.34145,146.37971 140.19212,146.51837 139.97879,146.62504 C 139.76545,146.7317 139.46679,146.81704 139.08279,146.88104 C 139.01879,146.90237 138.98679,146.9557 138.98679,147.04104 C 139.00812,147.10504 139.05079,147.13704 139.11479,147.13704 C 139.47745,147.15837 139.82945,147.16904 140.17079,147.16904 C 140.53345,147.16904 140.89612,147.16904 141.25879,147.16904 L 144.90679,147.16904 C 144.97078,147.16904 145.00278,147.12637 145.00279,147.04104 C 145.00278,146.9557 144.97078,146.91304 144.90679,146.91304 C 144.18145,146.87037 143.65878,146.6997 143.33879,146.40104 C 143.01878,146.10237 142.85878,145.60104 142.85879,144.89704 L 142.85879,130.78504 C 143.37078,130.52905 143.92545,130.40105 144.52279,130.40104 C 145.09878,130.40105 145.61078,130.53972 146.05879,130.81704 C 146.52811,131.07305 146.92278,131.41439 147.24279,131.84104 C 147.56278,132.26772 147.80811,132.74772 147.97879,133.28104 C 148.14944,133.79305 148.23478,134.31572 148.23479,134.84904 C 148.23478,136.04372 147.88278,137.02505 147.17879,137.79304 C 146.47478,138.53971 145.51478,138.91305 144.29879,138.91304 L 143.75479,138.91304 C 143.69078,138.91305 143.64811,138.95571 143.62679,139.04104 C 143.62678,139.10505 143.65878,139.14771 143.72279,139.16904 C 144.21345,139.27571 144.67211,139.32905 145.09879,139.32904 C 145.82411,139.32905 146.49611,139.16905 147.11479,138.84904 C 147.73344,138.52905 148.26678,138.11305 148.71479,137.60104 C 149.16278,137.06771 149.50411,136.47038 149.73879,135.80904 C 149.99477,135.14772 150.12277,134.47572 150.12279,133.79304 M 172.91929,144.86504 C 172.91926,144.48104 172.88726,144.10771 172.82329,143.74504 C 172.80193,143.68104 172.75926,143.64904 172.69529,143.64904 C 172.6526,143.62771 172.60993,143.64904 172.56729,143.71304 C 172.18327,144.54504 171.7886,145.27037 171.38329,145.88904 C 170.99927,146.48637 170.5406,146.9877 170.00729,147.39304 C 169.49527,147.79837 168.89794,148.1077 168.21529,148.32104 C 167.5326,148.51304 166.72194,148.60904 165.78329,148.60904 C 164.14061,148.60904 162.61528,148.2677 161.20729,147.58504 C 159.82061,146.90237 158.61528,145.99571 157.59129,144.86504 C 156.58861,143.73437 155.79928,142.43304 155.22329,140.96104 C 154.66862,139.48905 154.39128,137.96371 154.39129,136.38504 C 154.39128,134.87038 154.62595,133.49438 155.09529,132.25704 C 155.58595,131.01972 156.26861,129.96372 157.14329,129.08904 C 158.01795,128.19306 159.07395,127.51039 160.31129,127.04104 C 161.54861,126.55039 162.92461,126.30506 164.43929,126.30504 C 165.35661,126.30506 166.23127,126.43306 167.06329,126.68904 C 167.89527,126.92372 168.64194,127.28639 169.30329,127.77704 C 169.9646,128.26772 170.5086,128.87572 170.93529,129.60104 C 171.38327,130.32639 171.6926,131.16905 171.86329,132.12904 C 171.8846,132.19305 171.9166,132.22505 171.95929,132.22504 C 172.02327,132.22505 172.06593,132.19305 172.08729,132.12904 C 172.2366,131.14772 172.3646,130.17705 172.47129,129.21704 C 172.59927,128.23572 172.6846,127.23306 172.72729,126.20904 C 172.72726,126.12373 172.6846,126.08106 172.59929,126.08104 C 172.06593,126.03839 171.51127,125.98506 170.93529,125.92104 C 170.3806,125.85706 169.82593,125.78239 169.27129,125.69704 C 168.5246,125.59039 167.7566,125.48373 166.96729,125.37704 C 166.19927,125.27039 165.42061,125.21706 164.63129,125.21704 C 163.92727,125.21706 163.15927,125.25973 162.32729,125.34504 C 161.51661,125.43039 160.70594,125.57973 159.89529,125.79304 C 159.08461,125.98506 158.30595,126.25173 157.55929,126.59304 C 156.83395,126.93439 156.20461,127.36106 155.67129,127.87304 C 155.00995,128.51306 154.42328,129.22772 153.91129,130.01704 C 153.39928,130.80639 152.96195,131.63839 152.59929,132.51304 C 152.25795,133.38772 151.99129,134.28372 151.79929,135.20104 C 151.62862,136.11838 151.54329,137.03571 151.54329,137.95304 C 151.54329,139.72371 151.84195,141.33438 152.43929,142.78504 C 153.03662,144.21437 153.86862,145.45171 154.93529,146.49704 C 156.02328,147.52104 157.30328,148.32104 158.77529,148.89704 C 160.24728,149.4517 161.84728,149.72904 163.57529,149.72904 C 164.98327,149.72904 166.36994,149.65437 167.73529,149.50504 C 169.1006,149.37704 170.46593,149.1957 171.83129,148.96104 C 171.89527,148.96104 171.92727,148.9397 171.92729,148.89704 C 172.22593,148.2997 172.4606,147.64904 172.63129,146.94504 C 172.82326,146.24104 172.91926,145.54771 172.91929,144.86504 M 192.65979,138.91304 C 192.65977,137.54771 192.40377,136.24638 191.89179,135.00904 C 191.4011,133.77172 190.71844,132.70505 189.84379,131.80904 C 188.9691,130.89172 187.94511,130.18772 186.77179,129.69704 C 185.59844,129.18506 184.32911,128.98239 182.96379,129.08904 L 182.54779,129.12104 C 181.03311,129.44106 179.75311,129.85706 178.70779,130.36904 C 177.66245,130.85972 176.81978,131.49972 176.17979,132.28904 C 175.53978,133.05705 175.07045,134.00638 174.77179,135.13704 C 174.49445,136.24638 174.35579,137.57971 174.35579,139.13704 C 174.35579,140.16104 174.64379,141.17438 175.21979,142.17704 C 175.81712,143.17971 176.56378,144.07571 177.45979,144.86504 C 178.35578,145.65437 179.33711,146.29437 180.40379,146.78504 C 181.49178,147.2757 182.53711,147.52104 183.53979,147.52104 C 184.75578,147.52104 185.90777,147.3077 186.99579,146.88104 C 188.10511,146.45437 189.07577,145.85704 189.90779,145.08904 C 190.73977,144.32104 191.4011,143.41437 191.89179,142.36904 C 192.40377,141.30238 192.65977,140.15038 192.65979,138.91304 M 190.51579,138.88104 C 190.51577,139.90505 190.36644,140.87571 190.06779,141.79304 C 189.79044,142.71038 189.36377,143.52104 188.78779,144.22504 C 188.23311,144.90771 187.53977,145.46237 186.70779,145.88904 C 185.87577,146.29437 184.91578,146.49704 183.82779,146.49704 C 182.67578,146.49704 181.65178,146.24104 180.75579,145.72904 C 179.85978,145.19571 179.09178,144.51304 178.45179,143.68104 C 177.83312,142.82771 177.36378,141.87838 177.04379,140.83304 C 176.72378,139.78771 176.56378,138.73171 176.56379,137.66504 C 176.56378,136.64105 176.71312,135.68105 177.01179,134.78504 C 177.33178,133.86772 177.77978,133.06772 178.35579,132.38504 C 178.93178,131.68105 179.63578,131.13705 180.46779,130.75304 C 181.32111,130.34772 182.29178,130.14505 183.37979,130.14504 C 184.53178,130.14505 185.54511,130.40105 186.41979,130.91304 C 187.31577,131.42505 188.06244,132.09705 188.65979,132.92904 C 189.27844,133.76105 189.7371,134.69972 190.03579,135.74504 C 190.35577,136.79038 190.51577,137.83571 190.51579,138.88104 M 211.64329,138.14504 C 211.64327,136.95038 211.41927,135.83038 210.97129,134.78504 C 210.5446,133.71838 209.94727,132.80105 209.17929,132.03304 C 208.41127,131.24372 207.49394,130.62505 206.42729,130.17704 C 205.38194,129.72906 204.24061,129.50506 203.00329,129.50504 C 202.59794,129.50506 202.17128,129.51572 201.72329,129.53704 C 201.29661,129.53706 200.88061,129.55839 200.47529,129.60104 C 200.04861,129.64372 199.62195,129.67572 199.19529,129.69704 C 198.76861,129.71839 198.34195,129.72906 197.91529,129.72904 C 197.57395,129.72906 197.21128,129.71839 196.82729,129.69704 C 196.44328,129.67572 196.09128,129.65439 195.77129,129.63304 C 195.49395,129.61172 195.22728,129.60106 194.97129,129.60104 C 194.71529,129.57972 194.44862,129.56906 194.17129,129.56904 C 194.02195,129.56906 193.98995,129.63306 194.07529,129.76104 C 194.13929,129.86772 194.23529,129.94239 194.36329,129.98504 C 194.49129,130.02772 194.62995,130.05972 194.77929,130.08104 C 195.03529,130.12372 195.29128,130.21972 195.54729,130.36904 C 195.80328,130.49705 195.93128,130.80639 195.93129,131.29704 L 195.93129,144.51304 C 195.93128,145.19571 195.84595,145.70771 195.67529,146.04904 C 195.52595,146.39037 195.09929,146.6357 194.39529,146.78504 C 194.33129,146.80637 194.29929,146.8597 194.29929,146.94504 C 194.32062,147.00904 194.36329,147.04104 194.42729,147.04104 C 195.04595,147.0197 195.66462,147.03037 196.28329,147.07304 C 196.92328,147.1157 197.55262,147.15837 198.17129,147.20104 C 198.72595,147.2437 199.29128,147.28637 199.86729,147.32904 C 200.46461,147.3717 201.04061,147.39304 201.59529,147.39304 C 203.08861,147.39304 204.45394,147.2117 205.69129,146.84904 C 206.92861,146.46504 207.98461,145.89971 208.85929,145.15304 C 209.73394,144.38504 210.4166,143.42504 210.90729,142.27304 C 211.39794,141.09971 211.64327,139.72371 211.64329,138.14504 M 209.46729,139.04104 C 209.46727,140.25704 209.27527,141.32371 208.89129,142.24104 C 208.50727,143.15838 207.96327,143.92637 207.25929,144.54504 C 206.55527,145.14237 205.71261,145.60104 204.73129,145.92104 C 203.77128,146.21971 202.70461,146.36904 201.53129,146.36904 C 200.95528,146.36904 200.45395,146.34771 200.02729,146.30504 C 199.62195,146.24104 199.28061,146.11304 199.00329,145.92104 C 198.72595,145.72904 198.51261,145.45171 198.36329,145.08904 C 198.23528,144.72637 198.17128,144.23571 198.17129,143.61704 L 198.17129,130.91304 C 198.57661,130.76372 198.99261,130.66772 199.41929,130.62504 C 199.84595,130.58239 200.27261,130.56105 200.69929,130.56104 C 201.97928,130.56105 203.15261,130.76372 204.21929,131.16904 C 205.30727,131.55305 206.23527,132.11839 207.00329,132.86504 C 207.77127,133.59038 208.36861,134.47572 208.79529,135.52104 C 209.24327,136.56638 209.46727,137.73971 209.46729,139.04104 M 223.47529,144.06504 L 223.21929,144.00104 C 223.04861,144.72637 222.69661,145.29171 222.16329,145.69704 C 221.65128,146.08104 221.02194,146.27304 220.27529,146.27304 C 219.72061,146.27304 219.14461,146.15571 218.54729,145.92104 C 217.97128,145.66504 217.52328,145.30237 217.20329,144.83304 L 217.20329,138.24104 L 218.16329,138.24104 C 218.33395,138.24105 218.57928,138.24105 218.89929,138.24104 C 219.21928,138.24105 219.53928,138.26238 219.85929,138.30504 C 220.20061,138.32638 220.50995,138.36905 220.78729,138.43304 C 221.08594,138.47571 221.28861,138.55038 221.39529,138.65704 C 221.50194,138.76371 221.57661,138.88105 221.61929,139.00904 C 221.66194,139.13705 221.70461,139.26505 221.74729,139.39304 C 221.78994,139.52105 221.82194,139.63838 221.84329,139.74504 C 221.88594,139.85171 221.96061,139.95838 222.06729,140.06504 C 222.10994,140.10771 222.15261,140.11838 222.19529,140.09704 C 222.25928,140.07571 222.29128,140.03304 222.29129,139.96904 C 222.33394,139.71305 222.36594,139.44638 222.38729,139.16904 C 222.40861,138.89171 222.44061,138.62505 222.48329,138.36904 C 222.52594,138.11305 222.55794,137.83571 222.57929,137.53704 C 222.62194,137.23838 222.65394,136.96105 222.67529,136.70504 C 222.67528,136.57705 222.62194,136.53438 222.51529,136.57704 C 222.28061,136.64105 222.04594,136.73705 221.81129,136.86504 C 221.64061,136.92905 221.46994,136.99305 221.29929,137.05704 C 221.12861,137.12105 220.98994,137.15305 220.88329,137.15304 L 217.17129,137.15304 L 217.17129,130.59304 L 219.69929,130.59304 C 220.38195,130.59305 220.95794,130.71039 221.42729,130.94504 C 221.89661,131.17972 222.15261,131.67039 222.19529,132.41704 C 222.19528,132.48105 222.22728,132.52372 222.29129,132.54504 C 222.37661,132.54505 222.42994,132.51305 222.45129,132.44904 C 222.55794,131.95839 222.65394,131.47839 222.73929,131.00904 C 222.84594,130.51839 222.93128,129.99572 222.99529,129.44104 C 222.99528,129.31306 222.94194,129.27039 222.83529,129.31304 C 222.74994,129.35572 222.65394,129.39839 222.54729,129.44104 C 222.46194,129.46239 222.37661,129.49439 222.29129,129.53704 L 213.17129,129.53704 C 213.10729,129.53706 213.06462,129.56906 213.04329,129.63304 C 213.04329,129.67572 213.06462,129.71839 213.10729,129.76104 C 213.27795,129.86772 213.43795,129.95305 213.58729,130.01704 C 213.75795,130.05972 213.90729,130.10239 214.03529,130.14504 C 214.26995,130.23039 214.48328,130.33705 214.67529,130.46504 C 214.88862,130.59305 214.99528,130.87039 214.99529,131.29704 L 214.99529,144.60904 C 214.99528,144.88637 214.97395,145.16371 214.93129,145.44104 C 214.90995,145.69704 214.84595,145.93171 214.73929,146.14504 C 214.63262,146.35837 214.47262,146.53971 214.25929,146.68904 C 214.06729,146.81704 213.81129,146.88104 213.49129,146.88104 L 213.49129,147.13704 C 214.06729,147.1157 214.64328,147.10504 215.21929,147.10504 C 215.81662,147.0837 216.40328,147.07304 216.97929,147.07304 C 217.40595,147.07304 217.82195,147.0837 218.22729,147.10504 C 218.63261,147.10504 219.04861,147.10504 219.47529,147.10504 C 219.96595,147.10504 220.45661,147.1157 220.94729,147.13704 C 221.45928,147.13704 221.96061,147.13704 222.45129,147.13704 C 222.55794,147.13704 222.69661,147.10504 222.86729,147.04104 L 222.89929,147.00904 C 222.98461,147.00904 223.02728,146.97704 223.02729,146.91304 C 223.09128,146.42237 223.15528,145.95304 223.21929,145.50504 C 223.28328,145.03571 223.36861,144.55571 223.47529,144.06504 M 246.23179,144.86504 C 246.23176,144.48104 246.19976,144.10771 246.13579,143.74504 C 246.11443,143.68104 246.07176,143.64904 246.00779,143.64904 C 245.9651,143.62771 245.92243,143.64904 245.87979,143.71304 C 245.49577,144.54504 245.1011,145.27037 244.69579,145.88904 C 244.31177,146.48637 243.8531,146.9877 243.31979,147.39304 C 242.80777,147.79837 242.21044,148.1077 241.52779,148.32104 C 240.8451,148.51304 240.03444,148.60904 239.09579,148.60904 C 237.45311,148.60904 235.92778,148.2677 234.51979,147.58504 C 233.13311,146.90237 231.92778,145.99571 230.90379,144.86504 C 229.90111,143.73437 229.11178,142.43304 228.53579,140.96104 C 227.98112,139.48905 227.70378,137.96371 227.70379,136.38504 C 227.70378,134.87038 227.93845,133.49438 228.40779,132.25704 C 228.89845,131.01972 229.58111,129.96372 230.45579,129.08904 C 231.33045,128.19306 232.38645,127.51039 233.62379,127.04104 C 234.86111,126.55039 236.23711,126.30506 237.75179,126.30504 C 238.66911,126.30506 239.54377,126.43306 240.37579,126.68904 C 241.20777,126.92372 241.95444,127.28639 242.61579,127.77704 C 243.2771,128.26772 243.8211,128.87572 244.24779,129.60104 C 244.69577,130.32639 245.0051,131.16905 245.17579,132.12904 C 245.1971,132.19305 245.2291,132.22505 245.27179,132.22504 C 245.33577,132.22505 245.37843,132.19305 245.39979,132.12904 C 245.5491,131.14772 245.6771,130.17705 245.78379,129.21704 C 245.91177,128.23572 245.9971,127.23306 246.03979,126.20904 C 246.03976,126.12373 245.9971,126.08106 245.91179,126.08104 C 245.37843,126.03839 244.82377,125.98506 244.24779,125.92104 C 243.6931,125.85706 243.13843,125.78239 242.58379,125.69704 C 241.8371,125.59039 241.0691,125.48373 240.27979,125.37704 C 239.51177,125.27039 238.73311,125.21706 237.94379,125.21704 C 237.23977,125.21706 236.47177,125.25973 235.63979,125.34504 C 234.82911,125.43039 234.01844,125.57973 233.20779,125.79304 C 232.39711,125.98506 231.61845,126.25173 230.87179,126.59304 C 230.14645,126.93439 229.51711,127.36106 228.98379,127.87304 C 228.32245,128.51306 227.73578,129.22772 227.22379,130.01704 C 226.71178,130.80639 226.27445,131.63839 225.91179,132.51304 C 225.57045,133.38772 225.30379,134.28372 225.11179,135.20104 C 224.94112,136.11838 224.85579,137.03571 224.85579,137.95304 C 224.85579,139.72371 225.15445,141.33438 225.75179,142.78504 C 226.34912,144.21437 227.18112,145.45171 228.24779,146.49704 C 229.33578,147.52104 230.61578,148.32104 232.08779,148.89704 C 233.55978,149.4517 235.15978,149.72904 236.88779,149.72904 C 238.29577,149.72904 239.68244,149.65437 241.04779,149.50504 C 242.4131,149.37704 243.77843,149.1957 245.14379,148.96104 C 245.20777,148.96104 245.23977,148.9397 245.23979,148.89704 C 245.53843,148.2997 245.7731,147.64904 245.94379,146.94504 C 246.13576,146.24104 246.23176,145.54771 246.23179,144.86504 M 265.97229,138.91304 C 265.97227,137.54771 265.71627,136.24638 265.20429,135.00904 C 264.7136,133.77172 264.03094,132.70505 263.15629,131.80904 C 262.2816,130.89172 261.25761,130.18772 260.08429,129.69704 C 258.91094,129.18506 257.64161,128.98239 256.27629,129.08904 L 255.86029,129.12104 C 254.34561,129.44106 253.06561,129.85706 252.02029,130.36904 C 250.97495,130.85972 250.13228,131.49972 249.49229,132.28904 C 248.85228,133.05705 248.38295,134.00638 248.08429,135.13704 C 247.80695,136.24638 247.66829,137.57971 247.66829,139.13704 C 247.66829,140.16104 247.95629,141.17438 248.53229,142.17704 C 249.12962,143.17971 249.87628,144.07571 250.77229,144.86504 C 251.66828,145.65437 252.64961,146.29437 253.71629,146.78504 C 254.80428,147.2757 255.84961,147.52104 256.85229,147.52104 C 258.06828,147.52104 259.22027,147.3077 260.30829,146.88104 C 261.41761,146.45437 262.38827,145.85704 263.22029,145.08904 C 264.05227,144.32104 264.7136,143.41437 265.20429,142.36904 C 265.71627,141.30238 265.97227,140.15038 265.97229,138.91304 M 263.82829,138.88104 C 263.82827,139.90505 263.67894,140.87571 263.38029,141.79304 C 263.10294,142.71038 262.67627,143.52104 262.10029,144.22504 C 261.54561,144.90771 260.85227,145.46237 260.02029,145.88904 C 259.18827,146.29437 258.22828,146.49704 257.14029,146.49704 C 255.98828,146.49704 254.96428,146.24104 254.06829,145.72904 C 253.17228,145.19571 252.40428,144.51304 251.76429,143.68104 C 251.14562,142.82771 250.67628,141.87838 250.35629,140.83304 C 250.03628,139.78771 249.87628,138.73171 249.87629,137.66504 C 249.87628,136.64105 250.02562,135.68105 250.32429,134.78504 C 250.64428,133.86772 251.09228,133.06772 251.66829,132.38504 C 252.24428,131.68105 252.94828,131.13705 253.78029,130.75304 C 254.63361,130.34772 255.60428,130.14505 256.69229,130.14504 C 257.84428,130.14505 258.85761,130.40105 259.73229,130.91304 C 260.62827,131.42505 261.37494,132.09705 261.97229,132.92904 C 262.59094,133.76105 263.0496,134.69972 263.34829,135.74504 C 263.66827,136.79038 263.82827,137.83571 263.82829,138.88104 M 286.13979,129.92104 L 286.07579,129.66504 C 285.9691,129.66506 285.85177,129.66506 285.72379,129.66504 C 285.59577,129.64372 285.47843,129.63306 285.37179,129.63304 C 285.0731,129.61172 284.77444,129.61172 284.47579,129.63304 C 284.19844,129.63306 283.9211,129.63306 283.64379,129.63304 C 283.19577,129.63306 282.74777,129.63306 282.29979,129.63304 C 281.8731,129.63306 281.41444,129.60106 280.92379,129.53704 C 280.88111,129.51572 280.83844,129.53706 280.79579,129.60104 C 280.77444,129.66506 280.78511,129.71839 280.82779,129.76104 C 280.93444,129.86772 281.05177,129.94239 281.17979,129.98504 C 281.32911,130.00639 281.48911,130.02772 281.65979,130.04904 C 281.8091,130.07039 281.95844,130.10239 282.10779,130.14504 C 282.2571,130.18772 282.39577,130.27305 282.52379,130.40104 C 282.65177,130.50772 282.74777,130.67839 282.81179,130.91304 C 282.8971,131.12639 282.93977,131.41439 282.93979,131.77704 C 282.93977,132.69439 282.95044,133.67572 282.97179,134.72104 C 282.9931,135.74505 283.01444,136.71571 283.03579,137.63304 C 283.0571,138.63571 283.06777,139.61705 283.06779,140.57704 C 283.0891,141.53704 283.09977,142.50771 283.09979,143.48904 L 283.09979,143.58504 C 280.85977,141.08904 278.65177,138.67838 276.47579,136.35304 C 274.29978,134.00638 272.04911,131.62772 269.72379,129.21704 C 269.70245,129.17439 269.67045,129.16372 269.62779,129.18504 C 269.58512,129.20639 269.55312,129.23839 269.53179,129.28104 L 269.27579,129.79304 L 269.27579,144.76904 C 269.27578,145.25971 269.16912,145.62237 268.95579,145.85704 C 268.76378,146.07037 268.53978,146.24104 268.28379,146.36904 C 268.15579,146.43304 268.01712,146.50771 267.86779,146.59304 C 267.73979,146.67837 267.59045,146.7957 267.41979,146.94504 C 267.37712,146.9877 267.36645,147.04104 267.38779,147.10504 C 267.43045,147.16904 267.48379,147.19037 267.54779,147.16904 C 267.95312,147.10504 268.35845,147.0517 268.76379,147.00904 C 269.16912,146.94504 269.56378,146.91304 269.94779,146.91304 C 270.24645,146.91304 270.54512,146.9237 270.84379,146.94504 C 271.16378,146.96637 271.47312,146.99837 271.77179,147.04104 C 271.98511,147.06237 272.18778,147.0837 272.37979,147.10504 C 272.59311,147.12637 272.80645,147.1477 273.01979,147.16904 C 273.08378,147.16904 273.11578,147.1477 273.11579,147.10504 C 273.13711,147.04104 273.12645,146.9877 273.08379,146.94504 C 272.84911,146.77437 272.64645,146.6677 272.47579,146.62504 C 272.30511,146.56104 272.13445,146.50771 271.96379,146.46504 C 271.81445,146.44371 271.66512,146.41171 271.51579,146.36904 C 271.38778,146.30504 271.27045,146.20904 271.16379,146.08104 C 271.07845,145.95304 271.00378,145.78237 270.93979,145.56904 C 270.87578,145.33437 270.84378,145.03571 270.84379,144.67304 C 270.84378,143.84104 270.83312,143.01971 270.81179,142.20904 C 270.79045,141.39838 270.75845,140.58771 270.71579,139.77704 C 270.67312,138.96638 270.64112,138.15571 270.61979,137.34504 C 270.59845,136.53438 270.58778,135.72372 270.58779,134.91304 C 270.58778,134.37972 270.61978,133.82505 270.68379,133.24904 C 270.98245,133.56905 271.24912,133.87838 271.48379,134.17704 C 271.71845,134.45438 271.98511,134.75305 272.28379,135.07304 C 273.15845,136.09705 274.07578,137.15305 275.03579,138.24104 C 275.99578,139.30771 276.96644,140.37438 277.94779,141.44104 C 278.95044,142.48638 279.96377,143.52104 280.98779,144.54504 C 282.01177,145.54771 283.03577,146.48637 284.05979,147.36104 C 284.10244,147.4037 284.1451,147.41437 284.18779,147.39304 C 284.25177,147.35037 284.28377,147.3077 284.28379,147.26504 C 284.39044,146.04904 284.4651,144.84371 284.50779,143.64904 C 284.55044,142.43304 284.57177,141.20638 284.57179,139.96904 L 284.57179,138.65704 L 284.53979,130.94504 C 284.53977,130.62505 284.69977,130.40105 285.01979,130.27304 C 285.3611,130.14505 285.6811,130.03839 285.97979,129.95304 C 286.02243,129.93172 286.04377,129.93172 286.04379,129.95304 C 286.0651,129.95305 286.0971,129.94239 286.13979,129.92104 M 302.16729,129.53704 L 302.00729,129.40904 C 301.92194,129.43039 301.84727,129.45172 301.78329,129.47304 C 301.71927,129.49439 301.64461,129.51572 301.55929,129.53704 C 301.19661,129.64372 300.89794,129.69706 300.66329,129.69704 L 290.42329,129.69704 C 290.03928,129.69706 289.67662,129.67572 289.33529,129.63304 C 289.01528,129.56906 288.69528,129.43039 288.37529,129.21704 C 288.28995,129.15306 288.22595,129.17439 288.18329,129.28104 C 288.14062,129.43039 288.09795,129.57972 288.05529,129.72904 C 288.01262,129.85706 287.96995,129.99572 287.92729,130.14504 C 287.84195,130.44372 287.75662,130.75305 287.67129,131.07304 C 287.58595,131.37172 287.54329,131.69172 287.54329,132.03304 L 287.60729,132.44904 C 287.60729,132.51305 287.63929,132.55572 287.70329,132.57704 C 287.76729,132.59839 287.80995,132.57705 287.83129,132.51304 C 288.00195,132.06505 288.27929,131.67039 288.66329,131.32904 C 289.04728,130.98772 289.49528,130.81705 290.00729,130.81704 L 293.84729,130.81704 L 293.84729,144.70504 C 293.84728,145.06771 293.83661,145.37704 293.81529,145.63304 C 293.79395,145.86771 293.72995,146.05971 293.62329,146.20904 C 293.51661,146.35837 293.35661,146.48637 293.14329,146.59304 C 292.95128,146.67837 292.67395,146.7637 292.31129,146.84904 C 292.24728,146.87037 292.21528,146.9237 292.21529,147.00904 C 292.23661,147.09437 292.27928,147.12637 292.34329,147.10504 C 292.76995,147.06237 293.18595,147.03037 293.59129,147.00904 C 293.99661,146.9877 294.41261,146.97704 294.83929,146.97704 C 295.39394,146.97704 295.93794,146.99837 296.47129,147.04104 C 297.00461,147.06237 297.54861,147.09437 298.10329,147.13704 C 298.16728,147.13704 298.19928,147.10504 298.19929,147.04104 C 298.22061,146.9557 298.19928,146.90237 298.13529,146.88104 C 297.53794,146.77437 297.04728,146.50771 296.66329,146.08104 C 296.27928,145.65437 296.08728,145.13171 296.08729,144.51304 L 296.08729,130.78504 L 298.90329,130.78504 C 299.58594,130.78505 300.17261,130.91305 300.66329,131.16904 C 301.17527,131.40372 301.51661,131.89439 301.68729,132.64104 C 301.70861,132.70505 301.74061,132.73705 301.78329,132.73704 C 301.84727,132.73705 301.88994,132.70505 301.91129,132.64104 C 302.03927,132.17172 302.11394,131.65972 302.13529,131.10504 C 302.1566,130.55039 302.16727,130.02772 302.16729,129.53704 M 321.14179,147.04104 L 321.04579,146.78504 C 320.40577,146.87037 319.77644,146.7637 319.15779,146.46504 C 318.5391,146.14504 317.94177,145.71837 317.36579,145.18504 C 316.78977,144.63037 316.23511,144.02237 315.70179,143.36104 C 315.18977,142.67838 314.69911,142.01704 314.22979,141.37704 C 313.90978,140.95038 313.61111,140.54504 313.33379,140.16104 C 313.05644,139.75571 312.80044,139.42505 312.56579,139.16904 C 313.26978,138.50771 313.89911,137.71838 314.45379,136.80104 C 315.02977,135.88372 315.31777,134.91305 315.31779,133.88904 C 315.31777,133.12105 315.16844,132.45972 314.86979,131.90504 C 314.57111,131.35039 314.17644,130.90239 313.68579,130.56104 C 313.19511,130.21972 312.62978,129.97439 311.98979,129.82504 C 311.34978,129.65439 310.69911,129.56906 310.03779,129.56904 L 303.73379,129.56904 C 303.66979,129.56906 303.62712,129.61172 303.60579,129.69704 C 303.60579,129.76106 303.63779,129.80372 303.70179,129.82504 C 304.19245,129.95305 304.60845,130.20905 304.94979,130.59304 C 305.31245,130.95572 305.49378,131.38239 305.49379,131.87304 L 305.49379,144.64104 C 305.49378,145.13171 305.34445,145.59037 305.04579,146.01704 C 304.74712,146.44371 304.37379,146.7637 303.92579,146.97704 C 303.86179,147.0197 303.84045,147.0837 303.86179,147.16904 C 303.90445,147.23304 303.95779,147.25437 304.02179,147.23304 C 304.51245,147.16904 304.98178,147.1157 305.42979,147.07304 C 305.89912,147.03037 306.37912,147.00904 306.86979,147.00904 C 307.36045,147.00904 307.84045,147.03037 308.30979,147.07304 C 308.80045,147.09437 309.29111,147.12637 309.78179,147.16904 L 309.78179,146.91304 C 309.16311,146.84904 308.66178,146.6037 308.27779,146.17704 C 307.91512,145.72904 307.73378,145.19571 307.73379,144.57704 L 307.73379,140.03304 C 307.90445,139.99038 308.06445,139.96904 308.21379,139.96904 C 308.38445,139.96904 308.55511,139.96904 308.72579,139.96904 C 309.30178,139.96904 309.81378,140.07571 310.26179,140.28904 C 310.73111,140.50238 311.15778,140.79038 311.54179,141.15304 C 311.94711,141.49438 312.30978,141.88904 312.62979,142.33704 C 312.97111,142.76371 313.29111,143.20104 313.58979,143.64904 C 313.90978,144.13971 314.24044,144.61971 314.58179,145.08904 C 314.94444,145.55837 315.32844,145.97437 315.73379,146.33704 C 316.13911,146.6997 316.59777,146.99837 317.10979,147.23304 C 317.62177,147.4677 318.19777,147.58504 318.83779,147.58504 C 319.22177,147.58504 319.60577,147.54237 319.98979,147.45704 C 320.3951,147.35037 320.7791,147.2117 321.14179,147.04104 M 313.04579,135.07304 C 313.04578,136.22505 312.81111,137.13171 312.34179,137.79304 C 311.89378,138.43305 311.07245,138.75305 309.87779,138.75304 C 309.51511,138.75305 309.16311,138.74238 308.82179,138.72104 C 308.48045,138.69971 308.12845,138.65705 307.76579,138.59304 L 307.76579,130.62504 C 308.00045,130.51839 308.24578,130.45439 308.50179,130.43304 C 308.75778,130.39039 309.01378,130.36905 309.26979,130.36904 C 309.88845,130.36905 310.43245,130.51839 310.90179,130.81704 C 311.37111,131.09439 311.76578,131.45705 312.08579,131.90504 C 312.40578,132.35305 312.64044,132.85439 312.78979,133.40904 C 312.96044,133.96372 313.04578,134.51838 313.04579,135.07304 M 337.47229,138.91304 C 337.47227,137.54771 337.21627,136.24638 336.70429,135.00904 C 336.2136,133.77172 335.53094,132.70505 334.65629,131.80904 C 333.7816,130.89172 332.75761,130.18772 331.58429,129.69704 C 330.41094,129.18506 329.14161,128.98239 327.77629,129.08904 L 327.36029,129.12104 C 325.84561,129.44106 324.56561,129.85706 323.52029,130.36904 C 322.47495,130.85972 321.63228,131.49972 320.99229,132.28904 C 320.35228,133.05705 319.88295,134.00638 319.58429,135.13704 C 319.30695,136.24638 319.16829,137.57971 319.16829,139.13704 C 319.16829,140.16104 319.45629,141.17438 320.03229,142.17704 C 320.62962,143.17971 321.37628,144.07571 322.27229,144.86504 C 323.16828,145.65437 324.14961,146.29437 325.21629,146.78504 C 326.30428,147.2757 327.34961,147.52104 328.35229,147.52104 C 329.56828,147.52104 330.72027,147.3077 331.80829,146.88104 C 332.91761,146.45437 333.88827,145.85704 334.72029,145.08904 C 335.55227,144.32104 336.2136,143.41437 336.70429,142.36904 C 337.21627,141.30238 337.47227,140.15038 337.47229,138.91304 M 335.32829,138.88104 C 335.32827,139.90505 335.17894,140.87571 334.88029,141.79304 C 334.60294,142.71038 334.17627,143.52104 333.60029,144.22504 C 333.04561,144.90771 332.35227,145.46237 331.52029,145.88904 C 330.68827,146.29437 329.72828,146.49704 328.64029,146.49704 C 327.48828,146.49704 326.46428,146.24104 325.56829,145.72904 C 324.67228,145.19571 323.90428,144.51304 323.26429,143.68104 C 322.64562,142.82771 322.17628,141.87838 321.85629,140.83304 C 321.53628,139.78771 321.37628,138.73171 321.37629,137.66504 C 321.37628,136.64105 321.52562,135.68105 321.82429,134.78504 C 322.14428,133.86772 322.59228,133.06772 323.16829,132.38504 C 323.74428,131.68105 324.44828,131.13705 325.28029,130.75304 C 326.13361,130.34772 327.10428,130.14505 328.19229,130.14504 C 329.34428,130.14505 330.35761,130.40105 331.23229,130.91304 C 332.12827,131.42505 332.87494,132.09705 333.47229,132.92904 C 334.09094,133.76105 334.5496,134.69972 334.84829,135.74504 C 335.16827,136.79038 335.32827,137.83571 335.32829,138.88104 M 349.89579,143.84104 L 349.63979,143.77704 C 349.27711,144.52371 348.75444,145.13171 348.07179,145.60104 C 347.38911,146.04904 346.64244,146.27304 345.83179,146.27304 C 344.99978,146.27304 344.29578,146.03837 343.71979,145.56904 C 343.16512,145.07837 342.88778,144.38504 342.88779,143.48904 L 342.88779,131.58504 C 342.88778,131.13705 343.06912,130.76372 343.43179,130.46504 C 343.79445,130.14505 344.19978,129.94239 344.64779,129.85704 C 344.71178,129.83572 344.73311,129.79306 344.71179,129.72904 C 344.71178,129.64372 344.67978,129.60106 344.61579,129.60104 C 343.46378,129.66506 342.33312,129.69706 341.22379,129.69704 C 340.81845,129.69706 340.42378,129.69706 340.03979,129.69704 C 339.65579,129.69706 339.26112,129.68639 338.85579,129.66504 L 338.85579,129.92104 C 339.36779,129.94239 339.79445,130.10239 340.13579,130.40104 C 340.47712,130.69972 340.64778,131.10505 340.64779,131.61704 L 340.64779,144.64104 C 340.64778,144.83304 340.61578,145.05704 340.55179,145.31304 C 340.48778,145.56904 340.39178,145.81437 340.26379,146.04904 C 340.13578,146.26237 339.97578,146.44371 339.78379,146.59304 C 339.59179,146.74237 339.37845,146.8277 339.14379,146.84904 C 339.07979,146.84904 339.04779,146.8917 339.04779,146.97704 C 339.04779,147.06237 339.07979,147.10504 339.14379,147.10504 C 339.25045,147.10504 339.35712,147.10504 339.46379,147.10504 C 339.59179,147.0837 339.70912,147.07304 339.81579,147.07304 C 340.51978,147.0517 341.22378,147.03037 341.92779,147.00904 C 342.63178,146.9877 343.33578,146.97704 344.03979,146.97704 C 344.91445,146.97704 345.76778,146.99837 346.59979,147.04104 C 347.45311,147.06237 348.30644,147.1157 349.15979,147.20104 C 349.15978,147.20104 349.19178,147.19037 349.25579,147.16904 C 349.31978,147.12637 349.35178,147.07304 349.35179,147.00904 C 349.35178,146.94504 349.34111,146.90237 349.31979,146.88104 C 349.53311,146.45437 349.66111,146.02771 349.70379,145.60104 C 349.76778,145.15304 349.82111,144.69437 349.86379,144.22504 C 349.86378,144.16104 349.86378,144.09704 349.86379,144.03304 C 349.88511,143.96904 349.89578,143.90504 349.89579,143.84104"
         style="font-size:10px;font-style:normal;font-variant:normal;font-weight:normal;font-stretch:normal;fill:#ff6600;fill-opacity:1;stroke:none;stroke-width:1px;stroke-linecap:butt;stroke-linejoin:miter;stroke-opacity:1;font-family:Verdana;-inkscape-font-specification:Verdana" />
      <g
         id="g2999">
        <path
           id="path3003"
           d="M 237.0625,122.4375 C 242.09422,121.89904 247.25983,125.31888 248.71875,129.8125 C 253.6963,123.60675 264.63585,126.04509 266.75,133.6875 C 266.99901,127.33503 266.80391,120.01327 272.0886,128.91128 C 274.75386,131.91093 277.67778,135.54288 280.6875,138.65625 C 280.90392,134.58174 279.72199,128.7725 282.4375,126.25 C 285.23223,125.80483 286.18152,127.0606 286.53125,128.0625 C 290.995,125.77593 296.69037,126.89704 301.5625,127.3125 C 304.58513,130.44607 303.78537,125.07513 306.5,126.875 C 314.22313,123.97384 319.50709,134.2493 315.78125,140.0625 C 316.55522,140.9095 318.00271,143.73564 318.6875,143.46875 C 314.83863,136.18477 320.01512,125.24763 328.9375,126.28125 C 334.26546,126.50982 338.2763,131.39236 339,136.40625 C 339.3311,133.75657 337.32944,126.55656 340.8125,126.375 C 343.49162,126.54539 345.95676,125.05261 344.6875,129.78125 C 344.78428,134.08659 344.35395,138.43759 344.53125,143.09375 C 347.48857,142.32406 350.73816,143.89781 353.0625,145.65625 C 351.24847,149.9091 345.73061,150.8013 342.1875,149.6875 C 339.41725,152.06703 338.31035,149.81401 339.09375,146.84375 C 338.91283,144.83131 339.38613,138.90774 338.3125,143.8125 C 335.96472,150.80921 325.83321,152.66344 321.09375,147.09375 C 323.22595,150.91592 319.96448,151.35747 317.46875,149.96875 C 313.85052,148.65645 312.42562,143.94181 309.375,142.625 C 309.72382,143.67075 310.98675,151.90256 307.59375,150.3125 C 304.46074,151.34357 305.30077,146.47429 302.03012,146.43209 C 280.37425,138.43389 258.71837,130.4357 237.0625,122.4375 z M 303.96875,147.25 C 304.08988,147.21277 303.82324,147.13019 303.96875,147.25 z M 236.3125,122.46875 C 236.70478,122.47854 237.67009,122.37564 236.3125,122.46875 z M 234.90625,122.6875 L 235.375,122.59375 L 234.90625,122.6875 z M 230.9375,124 L 230.96875,123.96875 L 230.9375,124 z M 172.125,125.03125 C 173.94458,125.70461 174.62598,129.74867 175.71875,129.46875 C 181.16927,123.26799 192.25569,126.70018 193.78125,134.6875 C 194.87181,139.9392 193.88878,130.73944 194.15625,129.625 C 194.05197,127.16562 195.21678,125.33609 197.84375,126.9375 C 204.83847,125.20796 212.87259,130.14035 213.28125,137.59375 C 213.79987,133.94481 211.96618,128.71759 214.28125,126.71875 C 217.1825,126.64844 223.31021,125.72451 225.375,129.59375 C 226.32731,127.58781 227.9079,125.88144 229.75,124.65625 C 210.54167,124.78125 191.33333,124.90625 172.125,125.03125 z M 134.28125,126.96875 C 137.03565,128.42307 137.79236,132.19069 134.28125,126.96875 z M 237.15625,129.125 C 232.11869,128.58108 228.56692,133.2316 228.71875,137.9375 C 231.53125,135 234.34375,132.0625 237.15625,129.125 z M 131.34375,129.90625 C 131.6297,130.39648 131.69299,129.46087 131.34375,129.90625 z M 136.78125,129.90625 L 136.84375,129.90625 L 136.78125,129.90625 z M 245.53125,132.03125 C 241.56006,132.83384 240.29532,128.57726 245.33361,131.93325 L 245.53125,132.03125 z M 224.25,132.46875 C 224.61628,132.06571 223.7969,131.96853 224.25,132.46875 z M 328.09375,132.96875 C 322.9076,132.57884 321.06927,140.18334 325.46875,142.4375 C 329.62898,146.26749 336.17274,140.27152 332.75,135.71875 C 331.82903,134.0815 330.01932,132.75449 328.09375,132.96875 z M 223.96875,133.0625 C 221.30986,133.07147 216.46804,134.19889 221.15625,134.53125 C 223.73358,135.25998 224.25199,136.0896 223.96875,133.0625 z M 199.8125,143.4375 C 201.82754,143.56986 203.91428,143.63251 205.71875,142.625 C 203.75,142.89583 201.78125,143.16667 199.8125,143.4375 z M 311.34375,134.40625 L 311.34375,134.34375 L 311.34375,134.40625 z M 309.4375,136.125 C 309.87999,136.28563 310.93399,135.93148 309.4375,136.125 z M 304.25,146.96875 C 304.11445,147.03829 304.4593,147.00384 304.25,146.96875 z"
           style="font-size:10px;font-style:normal;font-variant:normal;font-weight:normal;font-stretch:normal;opacity:0.1;fill:#ff6600;fill-opacity:1;stroke:none;stroke-width:1px;stroke-linecap:butt;stroke-linejoin:miter;stroke-opacity:1;font-family:Verdana;-inkscape-font-specification:Verdana" />
        <path
           id="path3007"
           d="M 285.96875,127.15625 C 285.68545,130.4477 285.94358,130.1525 287.9375,128.5 C 292.58747,127.82173 298.20063,126.99382 302.59375,129.125 C 304.44002,132.49132 303.45887,125.02229 306.28125,128.0625 C 311.87438,125.49085 317.52764,131.96782 315.53125,137.4375 C 313.24993,140.05776 315.90303,142.35939 317.8125,144.4375 C 320.57107,144.56592 321.6779,146.91994 321.21875,149.5625 C 315.99857,150.12336 313.42344,143.9505 310.3125,141.53125 C 305.64552,141.25766 310.37872,145.20927 309.78125,146.90625 C 310.58517,150.6465 307.87702,149.29008 306.375,148.625 C 303.98965,150.21664 302.67548,143.59294 299.89671,142.66142 C 295.25406,137.49303 290.6114,132.32464 285.96875,127.15625 z M 303.96875,147.25 C 304.08988,147.21277 303.82324,147.13019 303.96875,147.25 z M 282.03125,127.3125 C 283.50634,128.21684 287.20641,126.84549 283.50203,127.24625 L 282.50304,127.29125 L 282.03125,127.3125 z M 327.65625,127.375 C 339.13096,126.58035 342.21777,145.9129 331.25,148.9375 C 320.96613,151.97767 314.51474,137.03864 321.40625,130.15625 C 323.02365,128.45526 325.31774,127.45828 327.65625,127.375 z M 280.90625,129.59375 C 281.32043,129.65145 281.57125,128.39171 280.90625,129.59375 z M 280.875,129.59375 L 280.875,129.53125 L 280.875,129.59375 z M 280.8125,129.75 L 280.84375,129.6875 L 280.8125,129.75 z M 272.0625,129.78125 C 274.1345,134.12199 278.60017,137.6865 281.78125,141.375 C 281.99759,137.20794 281.71615,133.08163 280.875,130.21875 C 279.04165,129.13929 274.70436,130.08049 272.0625,129.78125 z M 136.78125,129.90625 L 136.84375,129.90625 L 136.78125,129.90625 z M 328,131.875 C 321.79234,131.54785 319.64842,140.50667 324.84375,143.375 C 329.6077,147.65892 337.47377,141.19243 333.9375,135.65625 C 332.98139,133.41605 330.51698,131.5931 328,131.875 z M 312.375,134.8125 L 312.40625,134.65625 L 312.375,134.8125 z M 308.71875,137.1875 C 310.39889,137.5075 311.37622,137.05126 308.71875,137.1875 z M 304.25,146.96875 C 305.83474,147.04907 305.60238,146.97164 304.25,146.96875 z"
           style="font-size:10px;font-style:normal;font-variant:normal;font-weight:normal;font-stretch:normal;opacity:0.1;fill:#ff6600;fill-opacity:1;stroke:none;stroke-width:1px;stroke-linecap:butt;stroke-linejoin:miter;stroke-opacity:1;font-family:Verdana;-inkscape-font-specification:Verdana" />
        <path
           id="path3011"
           d="M 304.4375,128.3125 C 306.73915,130.33593 310.52765,127.14649 312.84375,130.21875 C 313.66608,130.91351 313.87209,131.13124 314,131.875 C 314.40441,132.00908 314.1593,133.69931 314.53125,133.4375 C 315.14139,134.36118 314.69004,134.06249 314.6875,135.625 C 315.23415,136.74096 312.76129,140.09899 312.625,139.90625 C 315.04784,141.79998 316.49471,147.40088 320.46875,145.5 C 322.37813,147.83563 320.57981,149.3514 318.375,147.9375 C 315.27956,146.04857 315.38122,145.59631 312.78125,142.21875 C 311.9553,139.37923 309.31024,140.80746 307.15625,140.1875 C 305.34724,145.05377 308.64023,144.94089 309.78125,146.90625 C 309.74627,151.40365 306.55222,144.89814 305.625,147.8125 C 302.59711,149.37857 304.39878,142.84403 304.07562,141.12739 C 304.19625,136.85576 304.31687,132.58413 304.4375,128.3125 z M 303.96875,147.25 C 304.08988,147.21277 303.82324,147.13019 303.96875,147.25 z M 327.71875,128.5 C 332.80365,127.90425 336.65343,133.44337 336.75,136.53125 C 337.00333,137.34368 337.26856,137.95484 337,138.9375 C 337.27851,139.96627 336.93268,140.60961 336.375,142.625 C 334.46096,149.57499 323.964,149.88737 321.15625,143.5 C 319.90655,142.01013 321.1713,141.90261 319.65625,141.4375 C 320.577,139.61036 319.25129,140.92145 319.78125,139.15625 C 319.58022,138.91246 319.92397,136.06231 319.75,136.6875 C 319.70974,135.60711 320.24262,133.58248 321.125,132.375 C 322.47058,130.08644 325.00559,128.53237 327.71875,128.5 z M 136.78125,129.90625 L 136.84375,129.90625 L 136.78125,129.90625 z M 327.90625,130.75 C 321.69128,130.42952 318.3062,138.97251 322.8125,143.0625 C 327.00006,148.88071 337.20844,144.63663 335.71875,137.625 C 335.19931,133.844 331.85982,130.3802 327.90625,130.75 z M 313.53125,134.84375 L 313.53125,134.75 L 313.53125,134.84375 z M 313.40625,135.21875 L 313.40625,135.1875 L 313.40625,135.21875 z M 308.125,138.3125 C 310.67206,138.87032 312.80228,137.55941 308.42565,138.27814 L 308.125,138.3125 z"
           style="font-size:10px;font-style:normal;font-variant:normal;font-weight:normal;font-stretch:normal;opacity:0.1;fill:#ff6600;fill-opacity:1;stroke:none;stroke-width:1px;stroke-linecap:butt;stroke-linejoin:miter;stroke-opacity:1;font-family:Verdana;-inkscape-font-specification:Verdana" />
        <path
           id="path3015"
           d="M 165.84375,125.84375 C 165.64168,125.71352 164.50026,125.79177 165.84375,125.84375 z M 165.875,125.84375 C 168.34907,126.16603 170.75252,127.66579 171.8125,129.96875 C 172.59348,127.47612 171.98358,125.93967 169.1875,126.25 C 168.08364,126.11411 166.98658,125.90899 165.875,125.84375 z M 239.15625,125.84375 C 238.95418,125.71352 237.81276,125.79177 239.15625,125.84375 z M 239.1875,125.84375 C 241.66157,126.16603 244.06502,127.66579 245.125,129.96875 C 245.90598,127.47612 245.29608,125.93967 242.5,126.25 C 241.39614,126.11411 240.29908,125.90899 239.1875,125.84375 z M 162.375,125.90625 C 161.65849,126.05697 163.30287,125.77734 162.375,125.90625 z M 162.1875,125.9375 C 154.56138,126.03103 150.57435,135.0015 152.59375,141.5 C 153.96539,146.91117 159.767,149.73076 165,149.15625 C 155.2738,148.74448 149.94326,134.94576 157.125,128.3125 C 158.57477,127.05373 160.30642,126.25421 162.1875,125.9375 z M 235.6875,125.90625 C 234.97099,126.05697 236.61537,125.77734 235.6875,125.90625 z M 235.5,125.9375 C 227.87388,126.03103 223.88685,135.0015 225.90625,141.5 C 227.27789,146.91117 233.0795,149.73076 238.3125,149.15625 C 228.5863,148.74448 223.25576,134.94576 230.4375,128.3125 C 231.88727,127.05373 233.61892,126.25421 235.5,125.9375 z M 304.25,129.40625 C 307.77012,131.18864 305.35958,136.03311 306.0625,139.09722 C 305.73487,141.81037 307.2298,146.03595 304.125,147.5 C 303.67536,141.76764 304.31035,135.35016 304.25,129.40625 z M 303.96875,147.25 C 304.08988,147.21277 303.82324,147.13019 303.96875,147.25 z M 310.03125,129.875 C 312.4166,130.48696 308.74049,130.03506 307.75,130.03125 C 308.42856,129.77372 310.27721,129.7201 310.03125,129.875 z M 311,130.15625 C 310.54871,130.23863 311.47777,128.74381 311,130.15625 z M 184.875,129.71875 C 188.46255,130.37925 191.27787,134.94314 191.09375,138.875 C 191.05118,141.61889 190.02172,144.49931 187.625,146 C 195.08061,142.45314 192.472,130.97542 184.875,129.71875 z M 187.625,146 C 187.56734,145.95707 187.59249,146.10364 187.625,146 z M 258.1875,129.71875 C 261.77505,130.37925 264.59037,134.94314 264.40625,138.875 C 264.36368,141.61889 263.33422,144.49931 260.9375,146 C 268.39311,142.45314 265.7845,130.97542 258.1875,129.71875 z M 260.9375,146 C 260.87984,145.95707 260.90499,146.10364 260.9375,146 z M 329.6875,129.71875 C 333.27505,130.37925 336.09037,134.94314 335.90625,138.875 C 335.86368,141.61889 334.83422,144.49931 332.4375,146 C 339.89311,142.45314 337.2845,130.97542 329.6875,129.71875 z M 332.4375,146 C 332.37984,145.95707 332.40499,146.10364 332.4375,146 z M 136.78125,129.90625 L 136.84375,129.90625 L 136.78125,129.90625 z M 311.90625,130.34375 C 311.43638,130.41439 312.5212,128.98397 311.90625,130.34375 z M 288.46875,130.3125 C 287.43835,131.53069 290.88668,129.75347 288.9375,130.09375 C 288.64645,130.18701 288.42893,129.54029 288.46875,130.3125 z M 202.0625,130.09375 C 209.05466,130.27107 212.69552,139.80092 207.875,144.75 C 206.97067,145.62716 205.64928,146.20972 204.65625,146.5625 C 212.49938,145.52913 213.23685,133.20963 206.21875,130.6875 C 204.9081,130.15343 203.46722,129.97738 202.0625,130.09375 z M 215.15625,130.125 C 216.30012,133.58616 215.15277,137.66232 215.5625,141.3125 C 215.45764,142.99907 215.83179,145.00591 215.21875,146.53125 C 216.29327,146.32279 219.91026,146.98684 217.46875,145.9375 C 215.4999,143.70511 217.28169,139.84427 216.59375,137.15625 C 215.93744,135.18469 218.08779,129.54727 215.15625,130.125 z M 220.71875,130.125 C 221.48302,130.81911 223.24604,130.48556 221.72569,130.09375 C 221.65124,130.12273 220.03806,130.04235 220.71875,130.125 z M 301.1875,130.1875 C 299.30743,130.34272 299.59896,130.08687 301.15625,130.8125 C 301.7704,131.91397 301.88853,129.54616 301.1875,130.1875 z M 312.71875,130.65625 C 312.38751,130.40047 313.5217,129.51666 312.71875,130.65625 z M 269.84375,144.78125 C 269.87473,145.85017 268.6167,146.77709 270.4375,146.34375 C 270.23761,143.67025 270.15848,139.43184 270.03402,136.233 C 269.95737,133.89743 269.88419,130.33986 271.90625,133.84375 C 275.70626,138.17639 279.49376,142.54267 283.78125,146.375 C 284.38367,141.01818 283.53068,135.443 284.21875,130.1875 C 282.09484,129.56043 284.21533,131.85233 283.51182,132.8923 C 283.56329,136.93875 283.68016,140.98415 283.65625,145.03125 C 279.11569,140.01438 274.55153,135.01741 269.84375,130.15625 C 269.84375,135.03125 269.84375,139.90625 269.84375,144.78125 z M 108.40625,130.28125 C 109.72782,133.02019 108.40297,136.77748 108.875,139.83333 C 108.62444,142.0392 109.35865,144.55785 108.53125,146.59375 C 110.71229,147.06966 110.24098,146.38835 109.96875,144.90625 C 109.96875,140.07292 109.96875,135.23958 109.96875,130.40625 C 111.46941,130.0511 108.39611,130.18612 108.40625,130.28125 z M 140.71875,130.28125 C 142.04032,133.02019 140.71547,136.77748 141.1875,139.83333 C 140.93694,142.0392 141.67115,144.55785 140.84375,146.59375 C 143.02479,147.06966 142.55348,146.38835 142.28125,144.90625 C 142.28125,140.07292 142.28125,135.23958 142.28125,130.40625 C 143.78191,130.0511 140.70861,130.18612 140.71875,130.28125 z M 196.25,130.28125 C 196.85655,135.19066 196.40428,140.5321 196.40625,145.5625 C 194.68001,147.26873 200.88445,146.81195 198.6875,146.34375 C 196.32079,143.8327 198.19964,139.55279 197.59375,136.40278 C 196.54962,133.80766 199.70956,129.22939 196.22655,130.21918 L 196.21875,130.21875 L 196.25,130.28125 z M 294.40625,130.8125 C 294.2471,135.8869 294.70484,141.68606 294.21875,146.4375 C 295.61803,146.42126 296.6844,146.77895 295.59375,145.25 C 295.43681,140.26048 295.58098,135.24777 295.53125,130.25 C 295.14944,130.43105 293.94591,129.78947 294.40625,130.8125 z M 340.84375,130.3125 C 341.90777,134.3448 340.8351,139.04788 341.21875,143.29166 C 342.03104,144.54662 339.44506,147.21361 341.9375,146.4375 C 344.03431,146.54703 343.96888,146.51163 342.71875,145.1875 C 341.66738,140.69459 342.62181,135.75362 342.34375,131.125 C 343.38321,129.73325 341.75755,130.34075 340.84375,130.3125 z M 114.03125,130.3125 C 116.52213,131.50511 116.96924,135.53452 115.96875,137.25 C 118.04425,135.00295 117.74834,129.96851 114.03125,130.3125 z M 146.34375,130.3125 C 148.83463,131.50511 149.28174,135.53452 148.28125,137.25 C 150.35675,135.00295 150.06084,129.96851 146.34375,130.3125 z M 313.09375,130.8125 C 312.5533,130.76783 314.07929,129.62443 313.09375,130.8125 z M 121.28125,130.40625 C 122.04146,135.25574 121.32958,140.56737 121.53125,145.5625 C 120.57523,146.98298 123.00926,146.90988 123.125,146.40625 C 121.7847,142.63007 123.04063,138.14604 122.65625,134.15972 C 122.79754,132.9011 122.34952,131.45713 122.9375,130.34375 C 122.56693,130.45495 121.44633,130.17869 121.28125,130.40625 z M 133.375,130.46875 C 133.79761,135.52304 133.68442,141.00826 133.40625,146.09375 C 132.53186,146.9033 136.25585,146.92841 134.90625,145.90625 C 134.45647,140.89458 134.60133,135.56864 134.875,130.5625 C 135.36363,130.1757 133.09851,130.49713 133.375,130.46875 z M 313.375,131.03125 C 313.03291,130.7717 314.50316,130.0632 313.375,131.03125 z M 179.34375,130.6875 C 173.9156,132.72869 173.28289,141.55146 178.15625,144.71875 C 178.9024,145.39912 181.50373,146.91629 179.4375,145.46875 C 175.09955,142.03402 174.55327,133.81565 179.5625,130.59375 L 179.34375,130.6875 z M 252.65625,130.6875 C 247.2281,132.72869 246.59539,141.55146 251.46875,144.71875 C 252.2149,145.39912 254.81623,146.91629 252.75,145.46875 C 248.41205,142.03402 247.86577,133.81565 252.875,130.59375 L 252.65625,130.6875 z M 324.15625,130.6875 C 318.7281,132.72869 318.09539,141.55146 322.96875,144.71875 C 323.7149,145.39912 326.31623,146.91629 324.25,145.46875 C 319.91205,142.03402 319.36577,133.81565 324.375,130.59375 L 324.15625,130.6875 z M 313.6875,131.28125 C 313.20891,131.14459 314.96706,130.31275 313.6875,131.28125 z M 313.9375,131.5625 C 313.64951,131.17909 315.23458,130.87509 313.9375,131.5625 z M 314.1875,131.84375 C 313.90305,131.4831 315.55686,131.29497 314.1875,131.84375 z M 314.40625,132.1875 C 314.16784,131.83627 315.79553,131.78878 314.40625,132.1875 z M 314.65625,132.78125 C 314.35181,132.4072 316.14555,132.5541 314.65625,132.78125 z M 314.6875,132.9375 C 314.38913,132.53926 316.26858,132.97313 314.6875,132.9375 z M 314.71875,133.40625 C 314.67757,132.982 316.21976,133.65104 314.71875,133.40625 z M 315.3125,133.875 C 314.63949,134.42895 314.48829,133.36259 315.3125,133.875 z M 315.3125,134.28125 C 314.58193,134.91365 314.53486,133.51514 315.3125,134.28125 z M 315.1875,135.03125 C 314.24462,135.51742 314.67108,134.22242 315.1875,135.03125 z M 315.09375,135.375 C 314.38033,135.63717 314.38805,134.64471 315.09375,135.375 z M 314.84375,136.09375 C 313.86631,136.47816 314.44504,135.12659 314.84375,136.09375 z M 314.65625,136.46875 C 313.98018,136.44859 313.99699,135.76688 314.65625,136.46875 z M 314.46875,136.8125 C 313.55787,136.8607 314.0917,135.98016 314.46875,136.8125 z M 314.03125,137.46875 C 312.99767,137.57144 313.8559,136.49538 314.03125,137.46875 z M 222,137.40625 C 220.84224,137.97862 218.69447,137.56455 221.09375,137.90625 C 222.01551,138.01154 222.00328,139.12813 222,137.40625 z M 313.09375,138.65625 C 312.04355,138.65392 313.03947,137.64794 313.09375,138.65625 z M 312.53125,139.96875 C 312.25271,139.6179 313.82164,139.33089 312.53125,139.96875 z M 311.90625,140.75 L 311.53125,141.15625 L 311.87448,140.71941 L 311.875,140.71875 L 311.90625,140.75 z M 313.0625,142.03125 L 312.625,142.34375 L 313.06184,142.00052 L 313.0625,142 L 313.0625,142.03125 z M 314.53125,144.0625 C 313.57594,145.16857 314.27025,143.7295 314.53125,144.0625 z M 315.28125,145.125 C 314.39992,146.26741 315.03465,144.71091 315.28125,145.125 z M 172.1875,145.65625 C 171.33159,147.21069 169.90453,148.52389 168.125,148.90625 C 170.57293,149.11283 172.60371,148.05447 172.34375,145.375 L 172.1875,145.65625 z M 245.5,145.65625 C 244.64409,147.21069 243.21703,148.52389 241.4375,148.90625 C 243.88543,149.11283 245.91621,148.05447 245.65625,145.375 L 245.5,145.65625 z M 348.96875,145.625 C 346.82722,146.33478 348.59951,147.40083 349.125,145.75 C 349.19531,145.65833 349.21696,145.13221 348.96875,145.625 z M 316.09375,145.96875 C 315.3848,147.2599 315.83288,145.54235 316.09375,145.96875 z M 222.5,146.125 C 220.97156,146.66878 222.85852,146.9118 222.5,146.125 z M 316.65625,146.375 C 322.22806,149.24515 310.57603,144.84556 316.65625,146.375 z M 308.34375,146.5 C 309.98735,145.98559 310.22233,147.99503 308.6875,147.1875 C 308.39212,147.05053 307.10227,146.15918 308.34375,146.5 z M 321.03125,146.78125 C 321.43949,148.16915 319.3123,146.6736 319.40625,147.5625 C 318.36664,146.61861 320.72747,146.88547 321.03125,146.78125 z M 204.1875,146.625 C 204.72882,146.75077 204.6215,146.39213 204.1875,146.625 z M 317.375,146.71875 C 317.10102,148.05802 316.98189,146.68318 317.375,146.71875 z M 317.71875,146.875 C 317.5025,148.38733 317.33813,146.5817 317.71875,146.875 z M 318.09375,146.96875 C 318.02235,148.5095 317.72483,146.72298 318.09375,146.96875 z M 318.46875,147 C 318.61652,148.4501 318.03936,146.9472 318.46875,147 z M 318.8125,147.03125 C 320.19313,147.03876 317.59964,148.46801 318.8125,147.03125 z"
           style="font-size:10px;font-style:normal;font-variant:normal;font-weight:normal;font-stretch:normal;opacity:0.1;fill:#ff6600;fill-opacity:1;stroke:none;stroke-width:1px;stroke-linecap:butt;stroke-linejoin:miter;stroke-opacity:1;font-family:Verdana;-inkscape-font-specification:Verdana" />
        <path
           id="path3019"
           d="M 163.5,124.6875 C 158.78985,124.69464 154.05932,127.05083 152.375,131.65625 C 148.89807,138.32263 151.94197,148.06328 159.75,149.78125 C 163.81821,150.75744 168.46845,150.30684 172.40625,149.21875 C 172.98991,147.53135 174.54749,144.1644 172.625,143.09375 C 171.03163,144.72554 169.99951,148.12396 167,147.96875 C 157.65942,149.40642 151.20923,136.67295 157.25,129.78125 C 160.80211,125.62313 169.58197,125.56742 171.1875,131.59375 C 171.20088,133.62713 173.57176,132.49684 172.84375,130.71875 C 172.69211,128.99949 174.70956,124.96824 171.49025,125.40143 C 168.83006,125.14424 166.18846,124.47562 163.5,124.6875 z M 236.8125,124.6875 C 232.10235,124.69464 227.37182,127.05083 225.6875,131.65625 C 222.21057,138.32263 225.25447,148.06328 233.0625,149.78125 C 237.13071,150.75744 241.78095,150.30684 245.71875,149.21875 C 246.30241,147.53135 247.85999,144.1644 245.9375,143.09375 C 244.34413,144.72554 243.31201,148.12396 240.3125,147.96875 C 230.97192,149.40642 224.52173,136.67295 230.5625,129.78125 C 234.11461,125.62313 242.89447,125.56742 244.5,131.59375 C 244.51338,133.62713 246.88426,132.49684 246.15625,130.71875 C 246.00461,128.99949 248.02206,124.96824 244.80275,125.40143 C 242.14256,125.14424 239.50096,124.47562 236.8125,124.6875 z M 182.9375,128.53125 C 178.1825,128.84173 173.67342,132.37626 173.85595,137.45952 C 172.73835,145.10802 183.08454,151.19027 189.21875,146.3125 C 196.00914,142.15375 193.45883,130.72534 186.03125,128.84375 C 185.02938,128.55071 184.00567,128.42022 182.9375,128.53125 z M 256.25,128.53125 C 251.495,128.84173 246.98592,132.37626 247.16845,137.45952 C 246.05085,145.10802 256.39704,151.19027 262.53125,146.3125 C 269.32164,142.15375 266.77133,130.72534 259.34375,128.84375 C 258.34188,128.55071 257.31817,128.42022 256.25,128.53125 z M 327.75,128.53125 C 322.995,128.84173 318.48592,132.37626 318.66845,137.45952 C 317.55085,145.10802 327.89704,151.19027 334.03125,146.3125 C 340.82164,142.15375 338.27133,130.72534 330.84375,128.84375 C 329.84188,128.55071 328.81817,128.42022 327.75,128.53125 z M 269.375,128.6875 C 267.74093,131.30354 269.22474,135.09023 268.71875,138.11459 C 268.2159,140.5062 269.63924,143.78409 268.1875,145.78125 C 266.63908,145.99661 266.29461,148.41784 268.25,147.65625 C 269.92768,146.78242 272.82721,148.6781 273.6875,147.03125 C 273.20362,145.66146 270.64194,146.29835 271.40625,144.10069 C 271.41725,140.96029 271.10289,137.82876 271.15625,134.6875 C 275.36542,139.20987 279.22621,144.37146 284.1875,147.96875 C 285.84664,146.83176 284.58894,143.6368 285.125,141.8125 C 285.22137,138.17847 284.92248,134.30621 285.21875,130.8125 C 287.54832,130.55324 286.49,128.46284 284.46875,129.0625 C 283.368,129.47052 279.58353,128.01007 280.46875,130.1875 C 281.5482,130.64113 282.82047,130.69861 282.38091,132.33677 C 282.41009,135.61035 282.50564,138.88283 282.53125,142.15625 C 278.27731,137.65514 274.18062,132.6135 269.625,128.625 L 269.5,128.625 L 269.375,128.6875 z M 287.84375,128.78125 C 287.24454,129.90439 286.11127,133.42578 288.15625,133.125 C 288.73246,130.73192 291.36608,131.34458 293.28125,131.375 C 293.02016,136.19741 293.75801,141.38403 293,146.03125 C 291.19838,145.88199 291.40365,148.50035 293.1794,147.58923 C 295.03742,147.43094 296.89151,147.69518 298.75,147.6875 C 299.46279,145.90897 296.30152,146.46058 296.65625,144.5 C 296.65625,140.11458 296.65625,135.72917 296.65625,131.34375 C 298.48941,131.16855 300.98156,131.10494 301.46875,133.21875 C 303.20491,133.43187 302.87901,129.83275 302.34375,128.96875 C 298.19464,129.13456 293.18272,129.40588 288.84375,128.875 C 288.60741,128.64363 288.10846,128.45943 287.84375,128.78125 z M 222.625,128.8125 C 219.40643,129.41236 215.76026,128.44545 212.625,129.21875 C 211.79858,130.93101 215.68634,130.21533 214.4375,132.48611 C 214.15037,136.92961 214.96374,141.76792 214.125,146.03125 C 213.30265,146.29172 212.03439,147.23748 213.49306,147.6875 C 216.77414,147.37488 220.30912,148.12996 223.4375,147.375 C 224.20903,146.03072 224.10867,141.6545 222.5625,144.25 C 221.60987,146.97618 216.24371,145.65704 217.78125,142.43403 C 217.14303,139.67997 218.04296,137.95628 220.84375,139.03125 C 221.10691,139.67085 222.35928,141.77619 222.84375,139.96875 C 222.99279,138.60164 224.07297,134.98748 221.625,136.34375 C 218.62261,137.58899 216.73174,136.02435 217.71875,132.70486 C 216.79807,130.5529 220.63482,130.67107 221.53125,131.84375 C 221.46248,133.98736 223.82877,132.83036 223.3125,131.09375 C 223.36704,130.41299 224.13412,128.30603 222.625,128.8125 z M 201.6875,128.96875 C 198.97461,129.48467 196.0677,128.63122 193.46875,129.28125 C 193.15696,131.22203 196.61353,130.06273 195.375,132.48611 C 195.04816,136.91504 195.9961,141.80944 194.96875,146 C 193.34688,146.05682 193.42891,148.26334 195.34375,147.59375 C 200.84272,148.15647 208.42039,148.87446 211.21875,142.90625 C 214.279,137.10731 210.27537,128.97464 203.46875,128.9375 C 202.87468,128.94098 202.28048,128.91996 201.6875,128.96875 z M 106.09375,129.125 C 105.0662,130.77138 108.94993,130.42321 107.75,132.61111 C 107.54049,137.01631 108.1297,141.87505 107.53125,146.0625 C 106.11182,145.96451 105.45852,147.99507 107.34375,147.71875 C 109.04789,147.15918 112.40002,148.80488 113.25,147 C 112.93246,145.89051 110.68714,146.53623 111.09375,144.84375 C 111.68412,143.16515 109.60197,138.59425 112.71875,139.90625 C 117.90817,140.2524 120.86464,131.39948 115.65625,129.4375 C 112.60332,128.82634 109.11668,129.08936 106.09375,129.125 z M 138.40625,129.125 C 137.3787,130.77138 141.26243,130.42321 140.0625,132.61111 C 139.85299,137.01631 140.4422,141.87505 139.84375,146.0625 C 138.42432,145.96451 137.77102,147.99507 139.65625,147.71875 C 141.36039,147.15918 144.71252,148.80488 145.5625,147 C 145.24496,145.89051 142.99964,146.53623 143.40625,144.84375 C 143.99662,143.16515 141.91447,138.59425 145.03125,139.90625 C 150.22067,140.2524 153.17714,131.39948 147.96875,129.4375 C 144.91582,128.82634 141.42918,129.08936 138.40625,129.125 z M 303.28125,129.15625 C 302.2739,130.65694 305.65812,130.57734 304.9375,132.43056 C 304.61661,136.80994 305.53634,141.49123 304.5625,145.71875 C 303.58042,146.26159 302.55336,147.83657 304.21875,147.75 C 306.25404,147.42761 308.30315,147.64335 310.34375,147.75 C 310.95196,145.95731 307.94475,146.55022 308.28125,144.5 C 307.98103,142.33822 307.96809,139.12317 310.65625,141.15625 C 313.59866,143.48593 314.88987,148.73892 319.53125,148.09375 C 320.98173,148.26799 322.98541,146.51837 320.71875,146.25 C 317.11712,145.75457 315.44179,141.68591 313.3125,139.1875 C 316.44672,136.80377 317.10076,130.72038 312.65625,129.4375 C 309.67203,128.67216 306.25666,128.94991 303.28125,129.15625 z M 342.90625,129.125 C 341.46141,129.04904 336.23132,128.70581 339.125,130.53125 C 341.35919,131.4287 339.47414,134.8873 340.09375,136.71875 C 339.59853,139.69685 341.03211,143.44365 339.5,146.0625 C 338.08311,146.23752 338.30439,148.14469 339.875,147.625 C 343.11966,147.26505 346.61253,147.94653 349.71875,147.5 C 350.08587,146.07623 351.51715,143.15676 349.3125,143.125 C 348.79639,145.98471 343.39795,146.91507 343.4375,143.4375 C 343.71571,139.37595 342.95113,134.86838 343.6875,131 C 344.52079,130.69179 346.21861,129.52754 344.59375,129.03125 C 344.03125,129.0625 343.46875,129.09375 342.90625,129.125 z M 118.65625,129.6875 C 118.69443,130.79417 121.39677,130.58369 120.4375,132.61111 C 120.19694,137.0104 120.87325,142.00773 120.1875,146.125 C 118.5262,145.88142 118.33738,148.13686 120.0625,147.75 C 121.93871,147.54584 124.3509,148.27907 125.9375,147.3125 C 126.05151,145.81861 123.35818,146.59622 123.75,144.71875 C 123.66775,141.28812 122.786,137.05798 127.63889,138.5625 C 132.34625,137.31695 133.18655,139.93845 132.46875,144.11806 C 132.95052,145.66099 131.80341,146.13939 130.84375,146.78125 C 130.93345,148.72123 134.21397,147.15577 135.59375,147.6875 C 138.07769,148.47055 138.51919,146.3568 136.375,146.03125 C 134.85533,143.84447 136.33392,140.40686 135.8125,137.83333 C 136.11408,135.6096 135.27834,132.83671 136.09375,130.84375 C 138.07982,130.83981 137.66554,128.33689 135.64021,129.27289 C 134.21542,129.89305 130.39557,127.99015 130.59375,130.28125 C 132.07527,130.6348 133.10934,131.38997 132.46875,133.22917 C 133.97385,138.19029 128.19474,135.86719 125.24652,136.375 C 122.54873,136.90878 124.09216,132.62691 123.90625,130.9375 C 124.94902,130.78835 126.39345,129.55022 124.75,129.1875 C 122.96877,129.61908 119.37488,128.44332 118.65625,129.6875 z M 183,130.71875 C 190.70998,130.2477 192.63393,143.65773 185.5625,145.71875 C 177.72218,147.8685 173.91053,135.13631 180.40625,131.40625 C 181.21462,131.00818 182.08655,130.73896 183,130.71875 z M 256.3125,130.71875 C 264.02248,130.2477 265.94643,143.65773 258.875,145.71875 C 251.03468,147.8685 247.22303,135.13631 253.71875,131.40625 C 254.52712,131.00818 255.39905,130.73896 256.3125,130.71875 z M 327.8125,130.71875 C 335.52248,130.2477 337.44643,143.65773 330.375,145.71875 C 322.53468,147.8685 318.72303,135.13631 325.21875,131.40625 C 326.02712,131.00818 326.89905,130.73896 327.8125,130.71875 z M 308.96875,130.9375 C 313.20413,130.5498 314.04726,139.11594 309.34375,138.1875 C 307.42157,137.80714 308.1899,132.12374 308.875,130.9375 L 308.96875,130.9375 z M 112.21875,130.96875 C 116.43193,131.14065 116.35247,138.77885 112,138.34375 C 109.7616,138.06565 111.7833,133.1802 111.09375,131.15625 C 111.45673,131.03666 111.83735,130.98953 112.21875,130.96875 z M 144.53125,130.96875 C 148.74443,131.14065 148.66497,138.77885 144.3125,138.34375 C 142.0741,138.06565 144.0958,133.1802 143.40625,131.15625 C 143.76923,131.03666 144.14985,130.98953 144.53125,130.96875 z M 200.125,131.125 C 205.38908,130.42251 210.07051,135.453 208.75,140.65625 C 208.29721,144.95535 202.70694,146.87604 199.15625,145.3125 C 197.99337,141.54534 199.11144,137.05251 198.71875,133.03819 C 198.65264,131.42391 198.40031,131.04685 200.125,131.125 z"
           style="font-size:10px;font-style:normal;font-variant:normal;font-weight:normal;font-stretch:normal;opacity:0.1;fill:#ff6600;fill-opacity:1;stroke:none;stroke-width:1px;stroke-linecap:butt;stroke-linejoin:miter;stroke-opacity:1;font-family:Verdana;-inkscape-font-specification:Verdana" />
        <path
           id="path3023"
           d="M 163.4375,123.59375 C 158.24611,123.38396 153.18067,126.64243 151.3125,131.03125 C 148.4372,126.03574 141.19634,128.38126 136.6875,128.125 C 134.12403,128.44484 127.62168,126.79574 129.96875,131.21875 C 135.45513,133.83934 126.25371,137.89327 124.875,134.28125 C 124.79529,131.53052 129.31974,127.70125 123.4375,128.125 C 120.2375,127.36498 118.11556,129.07717 116.53125,128.59375 C 112.93618,127.74821 108.23386,127.23923 105.09375,128.625 C 104.59815,131.31504 108.44581,132.78208 106.65625,136.6875 C 105.84281,139.83966 108.49678,144.62448 105.03125,146.25 C 104.6039,150.65891 110.62287,148.12147 113.3125,148.8125 C 115.59695,147.50971 113.70968,145.10032 112.21875,144.9375 C 111.17439,141.39602 112.54768,140.97686 115.21875,140.5 C 117.35996,139.58199 118.88861,137.48938 119.34375,135.21875 C 118.61599,139.0025 121.05877,144.15031 117.71875,146.53125 C 117.70813,150.27564 124.11847,148.88083 126.5625,148.28125 C 128.90878,145.14221 122.77575,146.07949 124.84375,142.46875 C 124.14591,136.67849 135.17585,139.44432 131.15625,145.25 C 127.64317,146.814 131.28262,149.87793 134,148.75 C 138.05631,148.16826 143.18886,150.17707 146.65625,147.78125 C 147.51129,144.75439 142.71508,146.14963 144.5,142.6875 C 143.85677,139.86139 148.39824,141.53245 149.59375,139.09375 C 150.27681,140.53958 150.95656,145.35779 153.34375,147.28125 C 158.34171,152.51131 167.1487,152.23152 173.34375,149.84375 C 174.51424,148.56978 174.28999,144.6472 174.875,144.5625 C 179.39498,151.31007 190.83711,150.33481 193.625,142.5625 C 194.64739,138.15544 194.32801,142.73717 194.1875,145.125 C 190.9798,146.14725 193.37264,150.02008 196.21875,148.71875 C 202.77655,150.18678 212.0878,148.48457 213.125,140.5625 C 214.97721,133.11622 207.68274,126.16983 200.3125,127.9375 C 197.86832,128.53439 190.82121,126.32269 192.84375,130.90625 C 195.62698,130.96441 194.07867,140.10551 194,136.03125 C 192.52757,128.5173 183.27219,124.93401 177.0625,129.34375 C 172.45406,131.63254 172.42496,138.65515 172.96875,142 C 170.1001,142.45388 169.78646,147.91436 165.78125,146.9375 C 156.51443,147.47562 151.93728,132.23904 160.9375,128.59375 C 164.99333,126.68449 170.17779,128.79387 170.65625,133.4375 C 175.06048,135.35495 174.01007,128.28569 174.375,125.46875 C 171.80694,123.51486 166.82448,123.74359 163.4375,123.59375 z M 236.75,123.59375 C 230.9966,123.43243 225.6837,127.07267 224.09375,132.59375 C 224.99349,130.65729 225.05086,126.47108 221.9375,127.875 C 219.01702,128.72948 210.5406,125.64821 211.59375,130.5 C 215.52311,133.11042 212.3005,139.45688 213.34375,143.6875 C 212.27105,145.79787 210.08966,149.62043 215.28125,148.75 C 218.87794,148.24001 225.53844,150.80425 225,144.96875 C 229.07257,152.42913 239.33989,152.4059 246.4375,150.09375 C 247.89886,148.92819 247.53371,144.50703 248.21875,144.625 C 252.78975,151.30628 264.15189,150.30923 266.9375,142.5625 C 268.08584,137.82628 267.51561,141.54203 267.59375,144.84375 C 264.32757,145.76254 266.02814,150.41736 269,148.65625 C 271.36613,148.54858 276.07061,149.71587 274.46875,145.78125 C 270.77253,145.08242 273.06445,139.97069 272.375,137.71875 C 276.18154,141.51346 279.44278,146.65587 284.1875,149.0625 C 287.9819,147.44356 285.38442,141.07766 286.21265,137.65627 C 284.68822,131.34751 287.96103,136.51793 289.53125,132.8125 C 293.55897,130.46937 291.96025,137.1093 292.1875,139.46875 C 293.5856,143.46469 290.84483,145.05777 290.59375,148.125 C 293.23582,149.42602 296.62077,148.33311 299.84375,148.78125 C 301.86843,145.13594 296.19424,146.2009 297.75,142.5 C 298.63639,139.93007 295.56927,130.72972 300.03125,132.875 C 300.71944,136.17111 304.1602,133.34699 303.84375,131.96875 C 303.16571,136.21378 304.98724,141.52905 303.34375,145.375 C 300.04772,146.76189 303.77378,150.51209 306.21875,148.6875 C 309.549,149.78029 314.13607,147.38669 310.03125,145.25 C 308.32881,144.93517 309.22408,139.96995 310.875,142.84375 C 312.9879,147.01828 317.95868,151.40925 322.75534,148.15139 C 324.97673,148.01448 328.95987,150.29278 332,148.59375 C 335.53366,147.43916 338.36522,144.32024 339,140.625 C 338.87413,142.77169 339.87253,145.39301 337.40625,146.1875 C 337.57304,151.05522 344.52566,147.5941 347.78125,148.75 C 351.65871,150.22716 352.1773,143.29761 351.08754,142.40264 C 348.78962,140.09715 346.99093,146.7111 344.59375,143.9375 C 344.90958,140.04572 343.75145,134.90093 344.9375,131.5 C 348.14369,130.60028 345.43445,126.53861 342.8125,128.03125 C 339.11105,126.67364 334.24792,129.87791 338.96875,131.71875 C 338.94906,135.51773 339.4475,138.59933 338,133.8125 C 334.89056,125.3198 321.38396,125.50639 318.25,133.8125 C 316.63841,137.43073 317.67184,142.66654 319.8125,144.9375 C 317.65829,143.05814 313.07142,139.93417 316.15625,137.21875 C 319.11485,132.43635 314.26786,126.75779 309.03125,127.90625 C 301.99537,127.45781 294.6285,128.88515 287.5625,127.53125 C 285.15439,128.92657 277.3971,125.98772 279.75,131.03125 C 283.14294,131.88333 280.48631,136.63755 281.40625,139.21875 C 277.15328,135.79384 274.19314,129.39406 269.21875,127.53125 C 265.5612,128.68509 268.91161,140.17955 267.59375,137.75 C 267.23568,129.75732 257.70748,124.52624 250.9375,129.0625 C 246.18817,131.21524 245.21249,137.84368 246.53125,142.0625 C 243.4053,141.85902 243.47078,147.6043 239.625,146.9375 C 230.09044,148.02402 225.02913,132.35464 234.25,128.59375 C 238.30583,126.68449 243.49029,128.79387 243.96875,133.4375 C 248.37298,135.35495 247.32257,128.28569 247.6875,125.46875 C 245.11944,123.51486 240.13698,123.74359 236.75,123.59375 z M 138.0625,131.28125 C 140.48944,134.01928 138.13968,139.90572 138.96875,143.6875 C 139.86019,146.88948 134.74077,145.04175 136.90625,142.375 C 137.83367,139.41988 135.13619,132.55879 138.0625,131.28125 z M 119.3125,131.65625 C 119.70314,133.45954 118.9866,131.69717 119.3125,131.65625 z M 112.21875,132.0625 C 114.80646,132.3528 115.05228,137.2164 112.1875,137.25 C 112.21068,135.53647 112.14312,133.72257 112.21875,132.0625 z M 144.53125,132.0625 C 147.11896,132.3528 147.36478,137.2164 144.5,137.25 C 144.52318,135.53647 144.45562,133.72257 144.53125,132.0625 z M 309.46875,132.0625 C 311.75041,132.40486 312.45254,137.63556 309.4375,137.09375 C 309.45508,135.42785 309.40059,133.67647 309.46875,132.0625 z M 200.21875,132.21875 C 206.44783,130.99899 210.71396,140.02641 205.5625,143.71875 C 203.40084,144.94531 197.99951,146.04564 199.8125,141.5 C 200.14091,138.64642 199.19453,134.40015 200.21875,132.21875 z M 219.59375,132.25 C 221.22237,132.29386 221.7522,135.9752 223.875,133.4375 C 223.81281,135.77012 220.54654,135.18539 218.8125,135.5 C 219.28223,134.6859 217.8352,131.73432 219.59375,132.25 z M 218.90625,139.90625 C 220.74718,139.76209 221.50987,142.94132 223.625,141.53125 C 223.80424,142.70776 221.49562,142.16296 221.28125,144.25 C 217.93224,145.95109 218.83243,142.10394 218.90625,139.90625 z"
           style="font-size:10px;font-style:normal;font-variant:normal;font-weight:normal;font-stretch:normal;opacity:0.1;fill:#ff6600;fill-opacity:1;stroke:none;stroke-width:1px;stroke-linecap:butt;stroke-linejoin:miter;stroke-opacity:1;font-family:Verdana;-inkscape-font-specification:Verdana" />
        <path
           id="path3027"
           d="M 163.375,122.46875 C 158.52127,122.32937 153.44273,125.1556 151.125,128.8125 C 145.44794,124.7061 137.75541,127.83429 131.34375,126.96875 C 127.2036,129.52135 128.69791,127.20952 123.96875,126.96875 C 118.20274,127.02516 114.47157,127.009 108.46875,126.875 C 104.6969,125.07739 101.30292,130.83385 105.53125,132.40625 C 105.13939,137.30385 106.73137,143.00347 103.90625,146.78125 C 103.71075,152.11121 110.43191,149.12192 113.78125,149.9375 C 117.17619,148.1085 114.50014,144.67192 113.3125,143.125 C 113.43709,141.23446 117.19004,141.83066 118.21875,139.75 C 120.36281,143.82005 114.2667,146.19498 117.60749,149.52594 C 120.7005,150.05937 125.77757,151.14171 128.15625,148.25 C 128.99775,145.1541 122.52797,141.12762 127.96875,140.78125 C 134.08745,140.45585 127.0112,146.3133 129.03125,148.59375 C 131.46616,151.24812 136.84113,149.24102 140.15625,149.9375 C 143.59176,151.06675 150.26464,149.34111 146.90625,144.9375 C 144.01487,143.11399 146.24469,141.80091 148.5,141.25 C 149.83648,141.22107 149.75745,145.22245 151.25,146.4375 C 156.15271,153.64906 166.67449,153.65465 173.90625,150.875 C 175.47507,149.87969 174.65493,145.00309 176.96875,148 C 181.22184,151.33742 187.57179,150.88548 191.53125,147.375 C 191.95157,151.75229 197.60136,149.07212 200.65625,150.15625 C 204.19982,150.31537 207.99128,149.60287 210.71875,147.21875 C 209.7746,152.027 216.3774,149.1157 219.46875,149.875 C 222.16601,151.07423 224.95435,148.37552 226.3125,148.5 C 231.79702,153.69974 240.71242,153.29825 247.21875,150.875 C 248.78757,149.87969 247.96743,145.00309 250.28125,148 C 254.44107,151.25739 260.65104,150.9277 264.59375,147.5625 C 265.32483,151.93211 269.91868,148.85823 273.09375,149.9375 C 276.57871,150.59603 276.83694,144.60823 273.625,144.03125 C 272.46844,138.19646 275.46691,143.15708 277.5,144.9375 C 279.77378,147.21551 284.45509,153.28839 286.90625,148.125 C 287.79362,144.61772 286.76391,138.46972 287.75,136.53125 C 292.24232,129.54485 290.9234,138.67072 291.0625,142.59375 C 290.15159,145.49852 287.43948,149.66287 292.8636,150.4945 C 295.06456,148.00533 301.67083,152.48667 301,147.625 C 302.62737,152.29213 307.80184,148.74118 311.6544,150.02344 C 313.25181,148.77466 311.82358,145.7958 314.4375,148.84375 C 317.21728,151.45482 321.19017,149.88779 324.0625,149.3125 C 328.06195,151.20749 333.00387,150.24666 336.28125,147.40625 C 337.71867,152.01963 344.01623,148.80101 347.75,149.875 C 352.85565,151.10169 352.23253,144.80111 353.5,141.8125 C 350.42525,140.89198 347.74293,139.88433 346.65625,143.1875 C 343.7404,145.31307 347.4072,134.48889 345.65625,137.46875 C 343.81573,133.49487 348.49632,131.81659 347.1875,128.375 C 344.75423,125.0801 339.63978,127.853 336.0625,126.75 C 337.12268,131.72081 333.18176,126.17343 330.75,126.53125 C 325.98355,125.52092 320.24238,127.93607 317.84375,131.875 C 315.45487,124.75644 305.89376,126.92552 300.59375,126.90625 C 293.90793,127.04275 288.10617,126.52174 281.75,126.8125 C 277.9127,125.71517 276.45587,131.3975 280.15625,132.59375 C 281.33975,140.11359 275.8047,130.61981 273.08258,128.73832 C 271.15071,124.37149 265.09361,126.97626 266.5,131.5 C 262.71844,125.40602 253.83282,124.7946 248.5625,129.3125 C 249.81511,125.77124 247.83113,122.37608 243.84375,123.0625 C 237.50636,121.85292 229.39528,121.97328 225.34375,127.84375 C 222.44924,125.05305 216.07958,127.31617 211.90625,127.03125 C 209.71089,130.65827 206.75804,126.12485 203.46875,126.71875 C 199.40746,127.44218 194.91457,125.75322 191.25,127.90625 C 191.60244,130.75669 188.35484,126.37908 186.59375,126.6875 C 182.70786,125.57901 178.37913,126.91225 175.25,129.3125 C 176.50261,125.77124 174.51863,122.37608 170.53125,123.0625 C 168.15704,122.75461 165.77897,122.28117 163.375,122.46875 z M 164.03125,129.09375 C 167.34713,128.51326 169.18826,131.46632 169.84375,134.25 C 173.50782,134.77552 170.72925,138.50701 171.75,140.875 C 169.42183,142.53133 168.65064,147.24625 164.53125,145.75 C 155.81265,144.59993 153.93414,129.25323 164.03125,129.09375 z M 237.34375,129.09375 C 240.65963,128.51326 242.50076,131.46632 243.15625,134.25 C 246.82032,134.77552 244.04175,138.50701 245.0625,140.875 C 242.73433,142.53133 241.96314,147.24625 237.84375,145.75 C 229.12515,144.59993 227.24664,129.25323 237.34375,129.09375 z M 128.4375,130.75 C 133.61213,135.47332 122.41527,135.09889 127.59375,130.78125 C 127.7554,129.45222 128.32023,129.18002 128.4375,130.75 z M 183.375,132.9375 C 189.61731,133.0807 189.01597,146.0804 182.1875,143.34375 C 178.39479,141.35055 177.98814,132.95373 183.375,132.9375 z M 256.6875,132.9375 C 262.92981,133.0807 262.32847,146.0804 255.5,143.34375 C 251.70729,141.35055 251.30064,132.95373 256.6875,132.9375 z M 328.1875,132.9375 C 334.42981,133.0807 333.82847,146.0804 327,143.34375 C 323.20729,141.35055 322.80064,132.95373 328.1875,132.9375 z M 201,133.34375 C 206.68113,132.54918 209.16515,142.17963 203.4375,143.40625 C 198.48109,145.00907 201.9612,137.12095 200.9375,134.4375 C 203.27083,136.38542 200.43958,133.16875 201,133.34375 z M 298.90625,133.5625 C 303.26004,135.44314 303.21623,137.96983 302.71875,143.34375 C 302.76275,147.47619 297.37186,144.73826 298.875,141.1875 C 298.89635,138.6578 298.83265,136.03957 298.90625,133.5625 z M 316.375,139.0625 C 316.47479,140.22084 316.05002,138.87618 316.375,139.0625 z M 220.28125,142.28125 C 221.74635,145.06804 218.49725,142.28841 220.28125,142.28125 z"
           style="font-size:10px;font-style:normal;font-variant:normal;font-weight:normal;font-stretch:normal;opacity:0.1;fill:#ff6600;fill-opacity:1;stroke:none;stroke-width:1px;stroke-linecap:butt;stroke-linejoin:miter;stroke-opacity:1;font-family:Verdana;-inkscape-font-specification:Verdana" />
        <path
           id="path3031"
           d="M 163.3125,121.375 C 158.65864,121.55011 153.66702,123.18097 151.0625,127.3125 C 144.28202,123.8491 136.16063,126.72612 129.03125,125.90625 C 125.60091,126.12495 118.32418,125.539 114.40625,125.84375 C 110.2163,126.02454 102.38154,123.86356 102.44123,130.04243 C 105.10816,133.87704 104.93174,139.52337 103.96875,144.15625 C 101.34443,146.5301 103.24488,152.5958 107.34375,151.03125 C 111.19211,152.95152 115.64237,147.89878 117.28125,151.03125 C 120.94505,150.6413 125.57873,152.28976 128.34375,149.625 C 131.17672,152.3597 137.05441,150.344 140.71875,151.03125 C 144.6691,152.12849 150.78381,150.11909 148.4375,145.1875 C 145.79807,144.06641 147.6927,141.29971 148.59375,143.625 C 151.48218,152.54779 162.09445,155.06248 170.375,153.125 C 173.37705,153.60604 175.53518,150.84759 176.34375,148.9375 C 180.55647,152.1308 186.64837,152.17807 190.96875,149.1875 C 192.17779,152.43616 197.50929,150.26434 200.625,151.25 C 203.72198,151.40236 206.88027,150.90807 209.625,149.375 C 209.77417,152.68058 215.40574,150.3557 218.21875,150.96875 C 221.01868,151.3086 224.44145,150.81167 226.25,149.9375 C 232.21492,154.82384 241.38983,154.48313 248,151.65625 C 249.07027,149.46004 249.4533,147.96839 251.6875,150.125 C 255.49811,152.1179 260.28115,151.69514 263.875,149.4375 C 265.88344,152.33247 267.61455,151.09849 270.34375,150.78125 C 273.96029,151.95818 278.04661,150.20098 276.8125,145.84375 C 279.42414,149.04717 285.44599,154.68024 287.96875,148.46875 C 287.7832,148.08291 292.25339,153.34114 295.03125,150.84375 C 298.22689,151.06164 301.8487,150.90621 304.08485,151.52743 C 306.77107,149.45678 312.49334,152.9117 313.65625,150.21875 C 314.58823,149.86423 318.11851,152.38764 320.375,151.34375 C 324.27591,149.32276 328.62921,152.86879 332.8125,150.65625 C 335.14987,149.08454 336.4,149.56947 338.46875,150.96875 C 343.16557,149.96985 349.04795,152.8034 352.71875,149.1875 C 353.76841,146.51079 353.65145,143.57956 354.96875,140.96875 C 348.47328,139.00225 344.92205,141.94918 346.75,133.65625 C 350.81274,130.84487 347.63445,124.00382 342.6875,125.8125 C 339.28762,125.50151 335.26089,125.88208 334.0625,126.5625 C 328.80267,123.47359 321.75098,126.09055 317.9375,129.46875 C 313.9967,123.88072 305.73556,125.86168 300.375,125.8125 C 293.08519,125.77773 286.77165,125.5932 279.6875,125.65625 C 274.61736,126.03348 279.19358,134.85356 275.27753,129.40236 C 273.28809,125.19711 266.98534,123.49275 265.4375,128.59375 C 261.33957,124.4967 254.73145,124.31273 249.875,127.09375 C 250.53769,120.68188 242.37069,122.01821 237.9375,121.34375 C 233.42357,120.9012 228.20344,123.32659 225.375,125.4375 C 220.18285,126.24346 213.71433,124.01561 209.53125,127.40625 C 204.36032,124.45124 197.87512,125.8481 192.34375,126.125 C 189.35964,128.43329 186.19114,124.02071 182.65625,125.21875 C 180.15565,124.64506 175.44375,129.27603 176.59375,124.53125 C 173.60808,120.91743 167.76545,121.73444 163.3125,121.375 z M 164.09375,130.1875 C 168.5348,129.28903 167.54005,135.02489 170.6875,136 C 170.85762,139.22712 169.68142,142.87656 167.0625,144.59375 C 159.25278,146.6557 154.35127,132.80453 162.4375,130.4375 C 162.97536,130.31005 163.5166,130.21521 164.09375,130.1875 z M 237.40625,130.1875 C 241.8473,129.28903 240.85255,135.02489 244,136 C 244.17012,139.22712 242.99392,142.87656 240.375,144.59375 C 232.56528,146.6557 227.66377,132.80453 235.75,130.4375 C 236.28786,130.31005 236.8291,130.21521 237.40625,130.1875 z M 279.09375,133.28125 C 279.25701,133.80985 278.44534,132.79331 279.09375,133.28125 z M 183.375,134.03125 C 188.06963,134.31643 187.64968,144.70756 182.4375,142.1875 C 179.88417,140.45874 179.32782,134.12716 183.375,134.03125 z M 256.6875,134.03125 C 261.38213,134.31643 260.96218,144.70756 255.75,142.1875 C 253.19667,140.45874 252.64032,134.12716 256.6875,134.03125 z M 328.1875,134.03125 C 332.88213,134.31643 332.46218,144.70756 327.25,142.1875 C 324.69667,140.45874 324.14032,134.12716 328.1875,134.03125 z M 202.15625,134.625 C 206.50611,134.94574 206.98287,142.93522 202.03125,142.46875 C 202.10499,139.91374 201.87777,136.91099 202.15625,134.625 z M 300.03125,136.21875 C 305.0059,140.38577 298.27332,148.3748 299.96875,137.4375 C 301.13382,138.88266 299.53094,135.8492 300.03125,136.21875 z M 289.96875,136.4375 C 290.80096,139.14155 289.28023,147.00757 288.28125,145.6875 C 289.16197,142.87984 286.84835,137.57437 289.96875,136.4375 z M 129.15625,141.875 C 130.23539,148.00184 123.60955,140.55571 129.15625,141.875 z M 117.125,143.71875 C 115.77844,146.05187 113.05427,142.40127 116.3125,142.4375 C 117.61609,141.52234 117.03177,142.62615 117.125,143.71875 z"
           style="font-size:10px;font-style:normal;font-variant:normal;font-weight:normal;font-stretch:normal;opacity:0.1;fill:#ff6600;fill-opacity:1;stroke:none;stroke-width:1px;stroke-linecap:butt;stroke-linejoin:miter;stroke-opacity:1;font-family:Verdana;-inkscape-font-specification:Verdana" />
        <path
           id="path3035"
           d="M 163.25,120.25 C 158.62791,120.48398 153.60815,121.97631 150.78125,125.84375 C 143.10557,123.01142 134.65593,125.56843 126.8125,124.75 C 118.9947,124.66322 112.21859,124.59141 104.4375,124.53125 C 101.1525,126.6744 99.849204,131.36883 103.3125,133.78125 C 103.71915,138.59072 103.33781,143.0738 101.6875,147.03125 C 101.31188,151.97425 104.99711,152.59576 108.9375,152.15625 C 113.87021,152.37007 115.81742,151.24828 120.09375,152.21875 C 124.02828,152.56924 127.66639,151.38641 130.71875,152.15625 C 136.45844,151.73119 142.57229,153.22804 147.70711,151.44914 C 149.71078,149.31675 150.11624,147.73067 152.09375,150.6875 C 158.34227,156.024 167.60274,155.4056 174.875,153.03125 C 176.34891,149.90881 177.74409,150.94384 180.40625,152.09375 C 183.7215,152.98149 187.32487,152.4333 190.34375,150.84375 C 192.23513,153.32696 197.36834,151.39328 200.5625,152.375 C 203.66132,153.20846 207.97081,150.34368 209.5,152.125 C 214.92061,151.58169 221.3667,153.0832 226.125,151.25 C 232.37679,156.00776 241.18066,155.29664 248.1875,153.03125 C 249.66141,149.90881 251.05659,150.94384 253.71875,152.09375 C 257.2698,153.49349 261.21609,151.49781 264.3125,151.0625 C 266.24559,155.2534 269.53054,150.5636 272.78125,152.15625 C 277.36136,154.85973 276.85013,145.53666 279.96875,150.4375 C 282.49106,154.07726 286.60605,151.53375 288.95693,151.04096 C 292.2072,153.91994 294.43207,151.66983 298.09375,152.125 C 302.18906,153.01521 304.42782,152.14965 308.59375,152.09375 C 312.42839,153.00281 314.1812,151.18585 317.21875,152.4375 C 320.7814,153.0134 323.759,150.77539 327.1875,152.4375 C 330.08528,152.77563 333.03468,152.02926 335.5625,150.625 C 339.2606,153.73199 345.12957,151.04369 349.78125,152.25 C 355.64958,151.2349 354.14442,144.1051 356.40625,140.15625 C 351.27755,140.27428 344.04475,136.8788 349.66421,131.92954 C 350.76604,127.64051 347.12304,123.2341 342.625,124.6875 C 338.9464,124.52353 334.7903,124.73646 332.375,124.65625 C 327.45505,122.88323 321.83803,125.22699 318.0625,127.8125 C 313.76778,123.14186 306.30919,124.73842 301.17348,124.43407 C 294.55514,125.27681 288.2485,123.82466 281.84375,124.59375 C 277.21723,122.88319 275.8861,131.33278 273.34375,125.75 C 271.20909,122.14902 266.11854,125.14817 264.71875,126.59375 C 260.82038,123.63663 255.40601,123.37231 251.03125,125.34375 C 250.06749,119.68847 243.0146,121.05715 238.53125,120.21875 C 233.41548,119.70495 228.56526,122.13654 224.4375,124.3125 C 219.37768,124.85858 213.30539,123.51605 209.0625,125.875 C 204.02857,123.39914 198.32833,125.16304 192.96875,124.5625 C 189.5606,127.3006 185.82347,122.77722 181.8125,124.15625 C 178.72198,125.087 177.54456,125.87198 176.25,122.625 C 173.46499,120.11053 167.20921,120.51706 163.25,120.25 z M 163.90625,131.3125 C 167.87185,130.32948 166.53107,135.81775 169.5,136.5625 C 169.63357,139.13609 168.57152,142.53431 166.28125,143.59375 C 159.57345,144.58508 155.92564,131.89971 163.90625,131.3125 z M 237.21875,131.3125 C 241.18435,130.32948 239.84357,135.81775 242.8125,136.5625 C 242.94607,139.13609 241.88402,142.53431 239.59375,143.59375 C 232.88595,144.58508 229.23814,131.89971 237.21875,131.3125 z M 183.0625,135.15625 C 186.8758,134.99713 185.90379,144.19159 182.40625,140.65625 C 181.49922,139.26066 180.83728,135.55772 183.0625,135.15625 z M 256.375,135.15625 C 260.1883,134.99713 259.21629,144.19159 255.71875,140.65625 C 254.81172,139.26066 254.14978,135.55772 256.375,135.15625 z M 327.875,135.15625 C 331.6883,134.99713 330.71629,144.19159 327.21875,140.65625 C 326.31172,139.26066 325.64978,135.55772 327.875,135.15625 z M 203.25,136.21875 C 204.6503,137.26799 205.29329,140.62098 203.15625,141.15625 C 203.19753,139.55447 203.06085,137.60501 203.25,136.21875 z"
           style="font-size:10px;font-style:normal;font-variant:normal;font-weight:normal;font-stretch:normal;opacity:0.1;fill:#ff6600;fill-opacity:1;stroke:none;stroke-width:1px;stroke-linecap:butt;stroke-linejoin:miter;stroke-opacity:1;font-family:Verdana;-inkscape-font-specification:Verdana" />
      </g>
    </g>
  </g>
</svg>
